<svg width="1920" height="612" viewBox="0 0 1920 612" fill="none" xmlns="http://www.w3.org/2000/svg">
<path d="M10.6976 0H1929C1929 0 1579.46 50.2364 1290.56 120.902C1364.5 269.196 889.335 239.102 916.396 302.845C979.34 451.113 10.6976 567.835 10.6976 567.835V0Z" fill="#3A1D69"/>
<path d="M10.6976 0H1929C1929 0 1809.11 165.066 1279.87 165.066C1353.8 313.361 914.313 249.618 941.374 313.361C1004.32 461.629 0 612 0 612L10.6976 0Z" fill="#3A1D69"/>
<path d="M0 0H1920C1920 0 1570.15 47.7738 1281 114.975C1355 256 879.415 227.381 906.5 288C969.5 429 0 540 0 540V0Z" fill="#C6B5E2"/>
<path d="M0 0H1920C1920 0 1800 156.975 1270.29 156.975C1344.29 298 904.415 237.381 931.5 298C994.5 439 -10.7071 582 -10.7071 582L0 0Z" fill="#C6B5E2"/>
</svg>
