<svg width="188" height="179" viewBox="0 0 188 179" fill="none" xmlns="http://www.w3.org/2000/svg">
<path d="M175.389 46.7646C166.984 33.0519 155.582 22.1956 141.181 14.1931C126.778 6.19024 111.054 2.18982 93.9985 2.18982C76.9449 2.18982 61.216 6.19146 46.816 14.1931C32.4138 22.1952 21.0125 33.0519 12.6068 46.7646C4.20241 60.4769 0 75.4508 0 91.6859C0 111.188 5.97589 128.725 17.9307 144.301C29.8842 159.878 45.3263 170.657 64.2558 176.638C66.4592 177.028 68.0904 176.754 69.151 175.824C70.212 174.892 70.7418 173.726 70.7418 172.329C70.7418 172.096 70.7208 169.999 70.6801 166.036C70.6381 162.073 70.6184 158.616 70.6184 155.666L67.8032 156.13C66.0083 156.443 63.744 156.576 61.0102 156.538C58.2778 156.502 55.4412 156.229 52.5042 155.722C49.566 155.22 46.8331 154.055 44.3035 152.229C41.7751 150.403 39.9802 148.013 38.9192 145.063L37.6953 142.382C36.8795 140.596 35.5951 138.613 33.8405 136.439C32.0859 134.263 30.3116 132.788 28.5166 132.011L27.6597 131.427C27.0887 131.039 26.5588 130.571 26.0688 130.028C25.5793 129.484 25.2128 128.941 24.968 128.396C24.7228 127.851 24.926 127.404 25.5797 127.054C26.2335 126.703 27.4149 126.533 29.1292 126.533L31.5762 126.881C33.2082 127.193 35.2269 128.123 37.6348 129.677C40.0415 131.231 42.0198 133.251 43.5704 135.735C45.448 138.922 47.7102 141.349 50.3634 143.02C53.0144 144.691 55.6872 145.524 58.3794 145.524C61.0715 145.524 63.3967 145.33 65.3558 144.944C67.3128 144.555 69.1488 143.971 70.8631 143.195C71.5975 137.987 73.5969 133.987 76.8596 131.191C72.2092 130.725 68.0282 130.024 64.3145 129.093C60.603 128.16 56.7675 126.645 52.8107 124.546C48.8518 122.449 45.5676 119.845 42.9574 116.739C40.3467 113.631 38.2041 109.551 36.5327 104.503C34.8603 99.4521 34.024 93.6259 34.024 87.0227C34.024 77.6206 37.2477 69.6198 43.6939 63.0157C40.6742 55.9471 40.9593 48.023 44.5499 39.2442C46.9163 38.5442 50.4255 39.0695 55.0759 40.8168C59.7272 42.565 63.1326 44.0626 65.2958 45.3042C67.4589 46.5454 69.1921 47.5973 70.4979 48.4503C78.0878 46.4311 85.9203 45.4213 93.9976 45.4213C102.075 45.4213 109.909 46.4311 117.5 48.4503L122.15 45.6548C125.331 43.7895 129.086 42.0801 133.408 40.5262C137.733 38.9732 141.04 38.5454 143.326 39.2454C146.996 48.0246 147.323 55.9483 144.303 63.0169C150.748 69.621 153.973 77.6239 153.973 87.0239C153.973 93.6272 153.134 99.4717 151.464 104.561C149.792 109.651 147.631 113.727 144.98 116.797C142.326 119.867 139.021 122.451 135.065 124.547C131.107 126.645 127.27 128.159 123.559 129.092C119.845 130.025 115.664 130.726 111.014 131.193C115.255 134.687 117.376 140.204 117.376 147.739V172.326C117.376 173.722 117.887 174.889 118.908 175.82C119.928 176.751 121.538 177.025 123.742 176.635C142.674 170.654 158.116 159.875 170.069 144.298C182.021 128.722 187.999 111.185 187.999 91.6827C187.994 75.4496 183.79 60.4769 175.389 46.7646Z" fill="#C6B5E2"/>
</svg>
