<svg width="671" height="1289" viewBox="0 0 671 1289" fill="none" xmlns="http://www.w3.org/2000/svg">
<circle cx="645.5" cy="995.5" r="293" fill="#1A0C72" fill-opacity="0.8" stroke="black"/>
<path opacity="0.5" d="M853.544 377.627C483.041 698.638 -642.269 -268.464 564.962 705.776C1772.19 1680.02 1190.7 -250.253 575.203 40.7467C-40.2974 331.747 1224.05 56.616 853.544 377.627Z" fill="#7C699B"/>
<path opacity="0.1" d="M76.4741 65.4447C71.4965 64.5048 66.3517 65.0678 61.6952 67.062C58.9 68.3076 55.8741 68.9512 52.8139 68.9512C49.7537 68.9512 46.7278 68.3076 43.9326 67.062C40.6254 65.6104 37.0423 64.8948 33.4313 64.9646C29.8202 65.0344 26.2675 65.888 23.019 67.4663C21.1682 68.4495 19.1055 68.9664 17.0098 68.9721C8.53281 68.9721 1.49191 60.4394 0.0279541 49.1881C1.69618 47.9446 3.11517 46.3979 4.21068 44.629C9.17417 36.6261 16.8564 31.4814 25.5007 31.4814C34.145 31.4814 41.7297 36.5564 46.6931 44.4756C48.1714 46.8683 50.2442 48.8373 52.7096 50.1909C55.1749 51.5445 57.9488 52.2365 60.7611 52.1996H60.9841C67.802 52.1299 73.6438 57.5395 76.4741 65.4447Z" fill="#6C63FF"/>
<path opacity="0.1" d="M3.58514 30.1012L17.2766 38.7733L8.91116 23.6599C11.2673 21.7847 14.1818 20.7494 17.193 20.7181H17.416C18.3499 20.7308 19.283 20.6609 20.2045 20.509L24.917 23.4508L22.9233 19.8258C26.2177 18.6856 29.0643 16.5275 31.0518 13.6634L39.4172 18.9335L34.1748 9.39706C39.0268 3.56921 45.5797 0 52.774 0C61.4183 0 69.1006 5.13073 74.0781 13.1336C75.5454 15.5265 77.6197 17.4886 80.0904 18.8207C82.5612 20.1528 85.3404 20.8074 88.146 20.7181H88.6061C98.1427 20.7181 105.867 31.5234 105.867 44.8521C105.867 58.1809 98.1427 69 88.6061 69C86.5114 68.986 84.4506 68.4697 82.5969 67.4943C79.3499 65.9119 75.7975 65.0549 72.1861 64.9827C68.5748 64.9104 64.9909 65.6247 61.6832 67.076C58.8903 68.3301 55.8635 68.9786 52.8019 68.9786C49.7403 68.9786 46.7135 68.3301 43.9206 67.076C40.6393 65.6573 37.0917 64.9592 33.5175 65.0289C29.9432 65.0987 26.4256 65.9346 23.2021 67.4803C21.3686 68.4398 19.3321 68.9466 17.2627 68.9582C7.72604 68.9582 0.00191498 58.139 0.00191498 44.8103C-0.0556259 39.6844 1.17657 34.6263 3.58514 30.1012Z" fill="#6C63FF"/>
<path opacity="0.1" d="M246.091 256.578C242.701 255.938 239.196 256.321 236.024 257.68C234.12 258.528 232.059 258.967 229.975 258.967C227.89 258.967 225.829 258.528 223.925 257.68C221.672 256.691 219.232 256.204 216.772 256.251C214.312 256.299 211.892 256.88 209.68 257.955C208.419 258.625 207.014 258.977 205.586 258.981C199.812 258.981 195.016 253.169 194.019 245.505C195.155 244.658 196.122 243.604 196.868 242.399C200.249 236.948 205.482 233.444 211.37 233.444C217.258 233.444 222.425 236.901 225.805 242.295C226.812 243.925 228.224 245.266 229.904 246.188C231.583 247.11 233.472 247.581 235.388 247.556H235.54C240.184 247.509 244.163 251.194 246.091 256.578Z" fill="#6C63FF"/>
<path opacity="0.1" d="M196.442 232.504L205.768 238.411L200.07 228.116C201.675 226.839 203.66 226.134 205.711 226.112H205.863C206.499 226.121 207.135 226.073 207.762 225.97L210.972 227.974L209.614 225.505C211.858 224.728 213.797 223.258 215.151 221.307L220.849 224.897L217.279 218.401C220.583 214.431 225.047 212 229.948 212C235.836 212 241.069 215.495 244.459 220.946C245.458 222.576 246.871 223.913 248.554 224.82C250.237 225.727 252.13 226.173 254.041 226.112H254.355C260.851 226.112 266.112 233.472 266.112 242.551C266.112 251.63 260.851 259 254.355 259C252.928 258.99 251.524 258.639 250.262 257.974C248.05 256.897 245.63 256.313 243.17 256.264C240.71 256.214 238.269 256.701 236.016 257.689C234.114 258.544 232.052 258.985 229.967 258.985C227.881 258.985 225.819 258.544 223.917 257.689C221.682 256.723 219.265 256.248 216.831 256.295C214.396 256.343 212 256.912 209.804 257.965C208.555 258.618 207.168 258.964 205.759 258.972C199.263 258.972 194.001 251.602 194.001 242.523C193.962 239.031 194.801 235.586 196.442 232.504Z" fill="#6C63FF"/>
</svg>
