<svg width="188" height="179" viewBox="0 0 188 179" fill="none" xmlns="http://www.w3.org/2000/svg">
<path d="M25.0716 14.32C19.5784 14.32 15.04 18.6412 15.04 23.8713V155.129C15.04 160.359 19.5784 164.68 25.0716 164.68H162.928C168.422 164.68 172.96 160.373 172.96 155.129V23.8713C172.96 18.6412 168.436 14.32 162.928 14.32H25.0716ZM25.0716 21.48H162.928C164.324 21.48 165.44 22.5428 165.44 23.8713V155.129C165.44 156.457 164.324 157.52 162.928 157.52H25.0716C23.6763 157.52 22.56 156.457 22.56 155.129V23.8713C22.56 22.5428 23.6763 21.48 25.0716 21.48ZM86.48 82.34V127.356C86.48 134.264 83.7335 136.04 78.96 136.04C73.9663 136.04 70.5 133.075 68.2088 129.23L56.4 136.04C59.8222 142.934 68.2088 150.36 79.8413 150.36C92.7075 150.36 101.52 143.843 101.52 129.537V82.34H86.48ZM133.304 82.34C120.496 82.34 112.286 90.1433 112.286 100.394C112.286 111.511 119.174 116.77 129.529 120.965L133.113 122.433C139.649 125.16 142.88 126.824 142.88 131.509C142.88 135.411 139.766 138.236 133.818 138.236C126.738 138.236 123.39 133.663 120.32 128.88L109.04 136.04C113.255 143.969 120.819 150.36 134.141 150.36C147.771 150.36 157.92 143.62 157.92 131.327C157.92 119.916 151.046 114.84 138.841 109.861L135.257 108.407C129.103 105.862 126.43 104.212 126.43 100.114C126.43 96.7999 129.103 94.2547 133.304 94.2547C137.431 94.2547 140.075 95.9188 142.528 100.114L153.705 93.2898C148.99 85.3606 142.425 82.34 133.304 82.34Z" fill="#3A1D69"/>
</svg>
