<svg width="188" height="193" viewBox="0 0 188 193" fill="none" xmlns="http://www.w3.org/2000/svg">
<g clip-path="url(#clip0)">
<path d="M131.142 38C130.22 38 129.375 38.7586 129.375 39.8141V72.9624L122.054 68.5803C121.596 68.3029 121.079 68.168 120.562 68.168C120.046 68.168 119.529 68.3029 119.071 68.5803L101.48 79.1115C100.564 79.6543 100 80.6587 100 81.7383V102.824C100 103.91 100.564 104.908 101.48 105.451L119.071 115.982C119.529 116.26 120.046 116.394 120.562 116.394C121.079 116.394 121.596 116.26 122.054 115.982L139.645 105.451C140.561 104.908 141.125 103.904 141.125 102.824V92.2812V81.7383V45.4213C141.125 44.3477 140.567 43.3607 139.668 42.8179L132.014 38.2474C131.726 38.0785 131.436 38 131.142 38ZM73.5625 68.168C73.047 68.168 72.532 68.3059 72.0708 68.5803L54.4802 79.1115C53.5637 79.6543 53 80.6587 53 81.7383V102.824C53 103.91 53.5637 104.908 54.4802 105.451L72.0708 115.982C72.9932 116.531 74.1318 116.531 75.0542 115.982L92.6448 105.451C93.5613 104.908 94.125 103.904 94.125 102.824V81.7383C94.125 80.6527 93.5613 79.6543 92.6448 79.1115L75.0542 68.5803C74.593 68.3059 74.078 68.168 73.5625 68.168ZM167.562 68.168C167.046 68.168 166.529 68.3029 166.071 68.5803L148.48 79.1115C147.564 79.6543 147 80.6587 147 81.7383V102.824C147 103.91 147.564 104.908 148.48 105.451L165.543 116.041C166.459 116.614 167.61 116.62 168.538 116.065L176.926 111.058C177.795 110.546 177.801 109.251 176.926 108.726L158.75 97.7353V86.9097L167.562 81.6441L176.375 86.9097V94.4487C176.375 95.4559 177.2 95.6111 177.752 95.2733C179.973 93.9344 186.668 89.9489 186.668 89.9489C187.567 89.4121 188.125 88.4191 188.125 87.3455V81.7383C188.125 80.6527 187.561 79.6543 186.645 79.1115L169.054 68.5803C168.59 68.3029 168.079 68.168 167.562 68.168ZM26.5625 68.1798C26.0455 68.1798 25.5291 68.3147 25.0708 68.5921L7.48022 79.1115C6.56372 79.6603 6 80.6645 6 81.7501V108.667C6 109.982 7.38549 110.797 8.48999 110.139L16.2927 105.475C17.1916 104.932 17.75 103.945 17.75 102.871V86.9332L26.5625 81.6559L35.375 86.9332V102.871C35.375 103.945 35.9334 104.932 36.8323 105.475L44.635 110.139C45.7395 110.803 47.125 109.982 47.125 108.667V81.7501C47.125 80.6645 46.5613 79.6603 45.6448 79.1115L28.0542 68.5921C27.5959 68.3147 27.0795 68.1798 26.5625 68.1798ZM120.562 81.6441L129.375 86.9214V92.2812V97.6411L120.562 102.918L111.75 97.6411V86.9214L120.562 81.6441ZM167.562 86.2736L162.525 89.2892V95.3087L167.562 98.3125L172.6 95.3087V89.2892L167.562 86.2736ZM96.5117 110.363C95.9073 110.363 95.2963 110.515 94.7676 110.823L78.2441 120.623C77.1573 121.239 76.5 122.449 76.5 123.71V143.288C76.5 144.548 77.1866 145.735 78.2441 146.374L82.593 148.918C84.6786 149.974 85.4452 149.979 86.3911 149.979C89.5049 149.979 91.2793 148.067 91.2793 144.69V125.347C91.2793 125.052 91.0559 124.841 90.7974 124.841H88.709C88.4211 124.841 88.2156 125.082 88.2156 125.347V144.69C88.2156 146.155 86.707 147.658 84.2454 146.398L79.7244 143.724C79.5775 143.633 79.4719 143.451 79.4719 143.276V123.698C79.4719 123.523 79.554 123.317 79.7244 123.227L96.2478 113.45C96.424 113.359 96.6232 113.359 96.7642 113.45L113.299 123.227C113.469 123.317 113.552 123.493 113.552 123.698V143.276C113.552 143.481 113.44 143.657 113.299 143.747L96.7642 153.56C96.6173 153.65 96.3888 153.65 96.2478 153.56L92.0251 150.98C91.9135 150.92 91.7352 150.884 91.6235 150.945C90.4544 151.65 90.2204 151.743 89.1335 152.123C88.8457 152.213 88.4543 152.394 89.2827 152.865L94.7676 156.21C95.3139 156.506 95.9125 156.681 96.5117 156.681C97.1403 156.681 97.7512 156.506 98.2329 156.187L114.756 146.374C115.843 145.759 116.5 144.548 116.5 143.288V123.71C116.5 122.449 115.814 121.269 114.756 120.623L98.2329 110.823C97.7188 110.515 97.1161 110.363 96.5117 110.363ZM122.284 119.398C120.598 119.398 119.117 120.798 119.117 122.65C119.117 124.441 120.539 125.913 122.284 125.913C124.029 125.913 125.451 124.441 125.451 122.65C125.451 120.798 123.999 119.368 122.284 119.398ZM122.249 119.917C123.742 119.917 124.946 121.124 124.946 122.65C124.946 124.145 123.736 125.382 122.249 125.418C120.786 125.418 119.599 124.175 119.599 122.65C119.599 121.124 120.792 119.917 122.249 119.917ZM121.09 120.8V124.464H121.767V123.003H122.398C122.657 123.003 122.718 123.116 122.777 123.321C122.777 123.351 122.885 124.3 122.915 124.475H123.649C123.567 124.3 123.506 123.799 123.477 123.498C123.395 123.027 123.368 122.703 122.88 122.673C123.139 122.583 123.569 122.442 123.569 121.766C123.569 120.795 122.747 120.8 122.318 120.8H121.09ZM121.767 121.389H122.341C122.517 121.389 122.857 121.383 122.857 121.884C122.857 122.089 122.771 122.42 122.307 122.414H121.767V121.389ZM100.941 124.381C96.2233 124.381 93.425 126.445 93.425 129.847C93.425 133.574 96.228 134.571 100.746 135.042C106.151 135.597 106.575 136.395 106.575 137.48C106.575 139.386 105.085 140.178 101.595 140.178C97.2181 140.178 96.2552 139.064 95.938 136.832C95.9086 136.597 95.7031 136.42 95.4446 136.42H93.2988C93.0403 136.42 92.8169 136.631 92.8169 136.927C92.8169 139.773 94.3284 143.182 101.561 143.182C106.866 143.176 109.868 141.066 109.868 137.362C109.868 133.695 107.463 132.72 102.375 132.014C97.2287 131.309 96.7183 130.954 96.7183 129.717C96.7183 128.692 97.1398 127.35 100.941 127.35C104.343 127.35 105.61 128.113 106.127 130.46C106.186 130.695 106.346 130.836 106.575 130.836H108.721C108.862 130.836 108.983 130.78 109.065 130.695C109.153 130.581 109.209 130.463 109.18 130.318C108.839 126.265 106.234 124.381 100.941 124.381Z" fill="#3A1D69"/>
</g>
<defs>
<clipPath id="clip0">
<rect width="188" height="193" fill="white"/>
</clipPath>
</defs>
</svg>
