<svg width="691" height="1005" viewBox="0 0 691 1005" fill="none" xmlns="http://www.w3.org/2000/svg">
<path d="M376.246 483.806C170.246 583.406 81.4115 428.306 84.7449 338.306C69.7449 258.371 58.2449 270.87 -56.2551 484.87C-170.755 698.87 29.7449 620.371 460.245 936.371C890.745 1252.37 633.746 359.306 376.246 483.806Z" fill="#C6B5E2" fill-opacity="0.3"/>
<ellipse opacity="0.7" cx="558" cy="480.5" rx="18" ry="20.5" fill="#9B91AA"/>
<circle cx="253.5" cy="372.5" r="65.5" fill="#6E3DBD" fill-opacity="0.7"/>
<path opacity="0.1" d="M115.18 75.4907C110.807 74.665 106.288 75.1596 102.197 76.9114C99.7414 78.0056 97.0833 78.5711 94.395 78.5711C91.7068 78.5711 89.0486 78.0056 86.5931 76.9114C83.6879 75.6363 80.5403 75.0076 77.3681 75.0689C74.196 75.1303 71.0751 75.8801 68.2213 77.2666C66.5955 78.1304 64.7835 78.5844 62.9425 78.5894C55.4958 78.5894 49.3106 71.0938 48.0246 61.2099C49.49 60.1175 50.7366 58.7588 51.6989 57.2049C56.0592 50.1747 62.8077 45.6553 70.4014 45.6553C77.9951 45.6553 84.6579 50.1134 89.0182 57.0701C90.3168 59.172 92.1376 60.9017 94.3034 62.0908C96.4691 63.2799 98.9058 63.8878 101.376 63.8554H101.572C107.561 63.7941 112.693 68.5462 115.18 75.4907Z" fill="#6C63FF"/>
<path opacity="0.1" d="M51.1494 44.4428L63.1769 52.0609L55.8281 38.7844C57.8979 37.137 60.4582 36.2276 63.1034 36.2001H63.2993C64.1197 36.2113 64.9394 36.1498 65.7489 36.0164L69.8887 38.6007L68.1372 35.4162C71.0312 34.4146 73.5319 32.5188 75.2778 30.0028L82.6265 34.6324L78.0213 26.255C82.2836 21.1354 88.0401 18 94.36 18C101.954 18 108.702 22.5072 113.075 29.5373C114.364 31.6394 116.186 33.3631 118.356 34.5333C120.527 35.7035 122.968 36.2785 125.433 36.2001H125.837C134.215 36.2001 141 45.6921 141 57.4009C141 69.1097 134.215 78.6139 125.837 78.6139C123.997 78.6016 122.187 78.148 120.558 77.2912C117.706 75.9011 114.585 75.1483 111.413 75.0848C108.24 75.0214 105.092 75.6489 102.186 76.9237C99.7329 78.0255 97.074 78.5951 94.3845 78.5951C91.695 78.5951 89.036 78.0255 86.5826 76.9237C83.7001 75.6774 80.5837 75.0642 77.4438 75.1255C74.304 75.1867 71.2139 75.9211 68.3822 77.2789C66.7715 78.1218 64.9825 78.567 63.1646 78.5771C54.787 78.5771 48.0017 69.073 48.0017 57.3641C47.9511 52.8613 49.0336 48.4179 51.1494 44.4428Z" fill="#6C63FF"/>
<path opacity="0.1" d="M241.658 199.784C238.556 199.199 235.35 199.55 232.448 200.792C230.706 201.569 228.82 201.97 226.913 201.97C225.006 201.97 223.12 201.569 221.378 200.792C219.317 199.888 217.084 199.442 214.834 199.485C212.584 199.529 210.37 200.061 208.345 201.044C207.192 201.657 205.906 201.979 204.6 201.983C199.318 201.983 194.93 196.665 194.017 189.653C195.057 188.879 195.941 187.915 196.624 186.812C199.717 181.825 204.505 178.619 209.892 178.619C215.279 178.619 220.005 181.782 223.099 186.717C224.02 188.208 225.312 189.435 226.848 190.278C228.384 191.122 230.113 191.553 231.866 191.53H232.005C236.253 191.487 239.894 194.858 241.658 199.784Z" fill="#6C63FF"/>
<path opacity="0.1" d="M196.234 177.759L204.767 183.163L199.553 173.745C201.022 172.576 202.838 171.931 204.714 171.911H204.853C205.435 171.919 206.017 171.876 206.591 171.781L209.528 173.614L208.286 171.355C210.339 170.645 212.113 169.3 213.351 167.515L218.564 170.799L215.297 164.856C218.321 161.224 222.405 159 226.888 159C232.275 159 237.063 162.197 240.165 167.185C241.079 168.676 242.372 169.899 243.911 170.729C245.451 171.559 247.183 171.967 248.932 171.911H249.218C255.161 171.911 259.975 178.645 259.975 186.951C259.975 195.258 255.161 202 249.218 202C247.913 201.991 246.629 201.67 245.473 201.062C243.45 200.076 241.236 199.541 238.986 199.496C236.735 199.451 234.502 199.897 232.44 200.801C230.7 201.583 228.813 201.987 226.906 201.987C224.998 201.987 223.111 201.583 221.371 200.801C219.326 199.917 217.115 199.482 214.888 199.525C212.66 199.569 210.468 200.09 208.459 201.053C207.317 201.651 206.048 201.967 204.758 201.974C198.815 201.974 194.001 195.232 194.001 186.925C193.965 183.731 194.733 180.579 196.234 177.759Z" fill="#6C63FF"/>
<path opacity="0.1" d="M575.164 148.911C563.502 146.772 551.449 148.053 540.54 152.59C533.991 155.425 526.902 156.889 519.733 156.889C512.563 156.889 505.474 155.425 498.925 152.59C491.177 149.288 482.783 147.659 474.323 147.818C465.863 147.977 457.54 149.919 449.929 153.51C445.593 155.748 440.761 156.924 435.851 156.937C415.991 156.937 399.495 137.522 396.066 111.921C399.974 109.091 403.298 105.572 405.865 101.547C417.493 83.3379 435.491 71.6318 455.743 71.6318C475.995 71.6318 493.764 83.1792 505.393 101.198C508.856 106.642 513.712 111.123 519.488 114.203C525.264 117.283 531.763 118.857 538.351 118.773H538.874C554.847 118.614 568.533 130.923 575.164 148.911Z" fill="#6C63FF"/>
<path opacity="0.1" d="M404.399 68.4912L436.476 88.2233L416.877 53.8349C422.397 49.568 429.225 47.2124 436.28 47.1413H436.802C438.99 47.1702 441.176 47.0109 443.335 46.6654L454.376 53.3591L449.705 45.1109C457.423 42.5164 464.092 37.606 468.748 31.0891L488.347 43.0806L476.065 21.3817C487.432 8.12126 502.784 0 519.639 0C539.891 0 557.889 11.6743 569.55 29.8836C572.988 35.3284 577.848 39.7929 583.636 42.8239C589.425 45.8549 595.936 47.3444 602.509 47.1413H603.587C625.929 47.1413 644.025 71.7271 644.025 102.055C644.025 132.383 625.929 157 603.587 157C598.679 156.968 593.851 155.793 589.508 153.574C581.901 149.973 573.578 148.023 565.118 147.859C556.657 147.695 548.261 149.32 540.512 152.622C533.968 155.476 526.877 156.951 519.704 156.951C512.532 156.951 505.44 155.476 498.897 152.622C491.21 149.394 482.898 147.806 474.525 147.964C466.151 148.123 457.91 150.025 450.358 153.542C446.062 155.725 441.291 156.878 436.443 156.905C414.101 156.905 396.004 132.287 396.004 101.96C395.87 90.2965 398.756 78.7875 404.399 68.4912Z" fill="#6C63FF"/>
</svg>
