<svg width="1900" height="688" viewBox="0 0 1872 688" fill="none" xmlns="http://www.w3.org/2000/svg">
<path d="M706.659 0.00312042L2355.65 7.39003e-05C2377.75 3.30863e-05 2395.65 17.9087 2395.65 40.0001V634.913C2395.65 658.174 2376.61 676.604 2353.41 674.999C2119.47 658.824 983.471 586.069 706.659 678.003C397.617 780.641 -715.833 0.703718 706.659 0.00312042Z" fill="#5615BF" fill-opacity="0.3"/>
<path d="M499.987 439.911C499.984 439.868 499.984 439.826 499.98 439.782C499.965 439.612 499.941 439.445 499.907 439.281C499.904 439.265 499.899 439.249 499.895 439.233C499.862 439.083 499.821 438.936 499.773 438.792C499.76 438.754 499.746 438.716 499.732 438.678C499.686 438.548 499.632 438.421 499.574 438.298C499.564 438.276 499.557 438.253 499.546 438.232L477.14 392.8V243.331C477.14 238.734 473.502 234.994 469.03 234.994H244.969C240.497 234.994 236.859 238.734 236.859 243.331V392.799L214.453 438.231C214.442 438.253 214.436 438.275 214.426 438.297C214.367 438.42 214.314 438.547 214.267 438.677C214.253 438.715 214.239 438.753 214.226 438.791C214.179 438.936 214.137 439.083 214.104 439.234C214.101 439.249 214.096 439.265 214.093 439.28C214.059 439.444 214.035 439.611 214.02 439.782C214.016 439.824 214.016 439.867 214.013 439.91C214.008 440 214 440.088 214 440.179V451.104C214 456.564 218.321 461.006 223.632 461.006H490.368C495.679 461.006 500 456.564 500 451.104V440.179C500 440.088 499.992 440 499.987 439.911ZM245.238 243.609H468.762V389.523H245.238V243.609ZM243.622 398.136H470.378L488.989 435.872H396.944L392.324 418.651C391.383 415.146 388.256 412.697 384.719 412.697H329.28C325.743 412.697 322.615 415.146 321.675 418.651L317.055 435.872H225.01L243.622 398.136ZM388.252 435.872H325.748L329.654 421.311H384.346L388.252 435.872ZM491.621 451.103C491.621 451.814 491.059 452.392 490.368 452.392H223.632C222.941 452.392 222.379 451.814 222.379 451.103V444.485H491.621V451.103Z" fill="black"/>
<path d="M455.635 323.743C453.321 323.743 451.445 325.67 451.445 328.049V371.722H262.555V328.049C262.555 325.67 260.679 323.743 258.365 323.743C256.051 323.743 254.176 325.67 254.176 328.049V373.581C254.176 377.305 257.122 380.335 260.745 380.335H453.255C456.878 380.335 459.825 377.306 459.825 373.581V328.049C459.824 325.671 457.949 323.743 455.635 323.743Z" fill="black"/>
<path d="M453.255 252.796H260.745C257.123 252.796 254.176 255.825 254.176 259.55V305.082C254.176 307.461 256.051 309.388 258.365 309.388C260.679 309.388 262.555 307.461 262.555 305.082V261.41H451.445V305.082C451.445 307.461 453.321 309.388 455.635 309.388C457.949 309.388 459.824 307.461 459.824 305.082V259.55C459.824 255.825 456.878 252.796 453.255 252.796Z" fill="black"/>
</svg>
