<svg width="187" height="179" viewBox="0 0 187 179" fill="none" xmlns="http://www.w3.org/2000/svg">
<path d="M157.08 152.262L170.287 11.0756C170.389 10.0687 170.039 9.07583 169.323 8.32068M157.08 152.262L156.584 152.201L169.789 11.029L169.789 11.0251C169.876 10.17 169.58 9.32015 168.961 8.66618M157.08 152.262L156.582 152.215L156.583 152.208C156.431 153.432 155.52 154.459 154.261 154.8L154.259 154.8L94.4194 171.246L94.4148 171.247C93.8177 171.417 93.1822 171.417 92.5852 171.247L92.5806 171.246L32.7406 154.8L32.7388 154.8C31.4797 154.459 30.5689 153.432 30.4171 152.208L30.4178 152.215L29.92 152.262M157.08 152.262C156.905 153.702 155.838 154.891 154.392 155.282L94.5519 171.728C93.8652 171.924 93.1348 171.924 92.4481 171.728L32.6081 155.282C31.1618 154.891 30.0953 153.702 29.92 152.262M168.961 8.66618C168.962 8.6668 168.962 8.66742 168.963 8.66804L169.323 8.32068M168.961 8.66618C168.961 8.66567 168.96 8.66517 168.96 8.66466L169.323 8.32068M168.961 8.66618C168.343 8.02669 167.466 7.65997 166.547 7.65997H20.4531H20.4524H20.4518H20.4511H20.4504H20.4497H20.449H20.4483H20.4476H20.447H20.4463H20.4456H20.4449H20.4442H20.4435H20.4428H20.4422H20.4415H20.4408H20.4401H20.4394H20.4387H20.4381H20.4374H20.4367H20.436H20.4353H20.4346H20.4339H20.4333H20.4326H20.4319H20.4312H20.4305H20.4298H20.4292H20.4285H20.4278H20.4271H20.4264H20.4257H20.425H20.4244H20.4237H20.423H20.4223H20.4216H20.4209H20.4202H20.4196H20.4189H20.4182H20.4175H20.4168H20.4161H20.4155H20.4148H20.4141H20.4134H20.4127H20.412H20.4113H20.4107H20.41H20.4093H20.4086H20.4079H20.4072H20.4066H20.4059H20.4052H20.4045H20.4038H20.4031H20.4024H20.4018H20.4011H20.4004H20.3997H20.399H20.3983H20.3977H20.397H20.3963H20.3956H20.3949H20.3942H20.3935H20.3929H20.3922H20.3915H20.3908H20.3901H20.3894H20.3887H20.3881H20.3874H20.3867H20.386H20.3853H20.3846H20.384H20.3833H20.3826H20.3819H20.3812H20.3805H20.3798H20.3792H20.3785H20.3778H20.3771H20.3764H20.3757H20.3751H20.3744H20.3737H20.373H20.3723H20.3716H20.3709H20.3703H20.3696H20.3689H20.3682H20.3675H20.3668H20.3661H20.3655H20.3648H20.3641H20.3634H20.3627H20.362H20.3614H20.3607H20.36H20.3593H20.3586H20.3579H20.3572H20.3566H20.3559H20.3552H20.3545H20.3538H20.3531H20.3525H20.3518H20.3511H20.3504H20.3497H20.349H20.3483H20.3477H20.347H20.3463H20.3456H20.3449H20.3442H20.3435H20.3429H20.3422H20.3415H20.3408H20.3401H20.3394H20.3388H20.3381H20.3374H20.3367H20.336H20.3353H20.3346H20.334H20.3333H20.3326H20.3319H20.3312H20.3305H20.3299H20.3292H20.3285H20.3278H20.3271H20.3264H20.3257H20.3251H20.3244H20.3237H20.323H20.3223H20.3216H20.321H20.3203H20.3196H20.3189H20.3182H20.3175H20.3168H20.3162H20.3155H20.3148H20.3141H20.3134H20.3127H20.312H20.3114H20.3107H20.31H20.3093H20.3086H20.3079H20.3073H20.3066H20.3059H20.3052H20.3045H20.3038H20.3031H20.3025H20.3018H20.3011H20.3004H20.2997H20.299H20.2984H20.2977H20.297H20.2963H20.2956H20.2949H20.2942H20.2936H20.2929H20.2922H20.2915H20.2908H20.2901H20.2894H20.2888H20.2881H20.2874H20.2867H20.286H20.2853H20.2847H20.284H20.2833H20.2826H20.2819H20.2812H20.2805H20.2799H20.2792H20.2785H20.2778H20.2771H20.2764H20.2758H20.2751H20.2744H20.2737H20.273H20.2723H20.2716H20.271H20.2703H20.2696H20.2689H20.2682H20.2675H20.2669H20.2662H20.2655H20.2648H20.2641H20.2634H20.2627H20.2621H20.2614H20.2607H20.26H20.2593H20.2586H20.2579H20.2573H20.2566H20.2559H20.2552H20.2545H20.2538H20.2532H20.2525H20.2518H20.2511H20.2504H20.2497H20.249H20.2484H20.2477H20.247H20.2463H20.2456H20.2449H20.2443H20.2436H20.2429H20.2422H20.2415H20.2408H20.2401H20.2395H20.2388H20.2381H20.2374H20.2367H20.236H20.2353H20.2347H20.234H20.2333H20.2326H20.2319H20.2312H20.2306H20.2299H20.2292H20.2285H20.2278H20.2271H20.2264H20.2258H20.2251H20.2244H20.2237H20.223H20.2223H20.2217H20.221H20.2203H20.2196H20.2189H20.2182H20.2175H20.2169H20.2162H20.2155H20.2148H20.2141H20.2134H20.2128H20.2121H20.2114H20.2107H20.21H20.2093H20.2086H20.208H20.2073H20.2066H20.2059H20.2052H20.2045H20.2038H20.2032H20.2025H20.2018H20.2011H20.2004H20.1997H20.1991H20.1984H20.1977H20.197H20.1963H20.1956H20.1949H20.1943H20.1936H20.1929H20.1922H20.1915H20.1908H20.1902H20.1895H20.1888H20.1881H20.1874H20.1867H20.186H20.1854H20.1847H20.184H20.1833H20.1826H20.1819H20.1812H20.1806H20.1799H20.1792H20.1785H20.1778H20.1771H20.1765H20.1758H20.1751H20.1744H20.1737H20.173H20.1723H20.1717H20.171H20.1703H20.1696H20.1689H20.1682H20.1676H20.1669H20.1662H20.1655H20.1648H20.1641H20.1634H20.1628H20.1621H20.1614H20.1607H20.16H20.1593H20.1586H20.158H20.1573H20.1566H20.1559H20.1552H20.1545H20.1539H20.1532H20.1525H20.1518H20.1511H20.1504H20.1497H20.1491H20.1484H20.1477H20.147H20.1463H20.1456H20.145H20.1443H20.1436H20.1429H20.1422H20.1415H20.1408H20.1402H20.1395H20.1388H20.1381H20.1374H20.1367H20.1361H20.1354H20.1347H20.134H20.1333H20.1326H20.1319H20.1313H20.1306H20.1299H20.1292H20.1285H20.1278H20.1271H20.1265H20.1258H20.1251H20.1244H20.1237H20.123H20.1224H20.1217H20.121H20.1203H20.1196H20.1189H20.1182H20.1176H20.1169H20.1162H20.1155H20.1148H20.1141H20.1135H20.1128H20.1121H20.1114H20.1107H20.11H20.1093H20.1087H20.108H20.1073H20.1066H20.1059H20.1052H20.1045H20.1039H20.1032H20.1025H20.1018H20.1011H20.1004H20.0998H20.0991H20.0984H20.0977H20.097H20.0963H20.0956H20.095H20.0943H20.0936H20.0929H20.0922H20.0915H20.0909H20.0902H20.0895H20.0888H20.0881H20.0874H20.0867H20.0861H20.0854H20.0847H20.084H20.0833H20.0826H20.082H20.0813H20.0806H20.0799H20.0792H20.0785H20.0778H20.0772H20.0765H20.0758H20.0751H20.0744H20.0737H20.073H20.0724H20.0717H20.071H20.0703H20.0696H20.0689H20.0683H20.0676H20.0669H20.0662H20.0655H20.0648H20.0641H20.0635H20.0628H20.0621H20.0614H20.0607H20.06H20.0594H20.0587H20.058H20.0573H20.0566H20.0559H20.0552H20.0546H20.0539H20.0532H20.0525H20.0518H20.0511H20.0504H20.0498H20.0491H20.0484H20.0477H20.047H20.0463H20.0457H20.045H20.0443H20.0436H20.0429H20.0422H20.0415H20.0409H20.0402H20.0395H20.0388H20.0381H20.0374H20.0368H20.0361H20.0354H20.0347H20.034H20.0333H20.0326H20.032H20.0313H20.0306H20.0299H20.0292H20.0285H20.0279H20.0272H20.0265H20.0258H20.0251H20.0244H20.0237H20.0231H20.0224H20.0217H20.021H20.0203H20.0196H20.0189H20.0183H20.0176H20.0169H20.0162H20.0155H20.0148H20.0142H20.0135H20.0128H20.0121H20.0114H20.0107H20.01H20.0094H20.0087H20.008H20.0073H20.0066H20.0059H20.0053H20.0046H20.0039H20.0032H20.0025H20.0018H20.0011H20.0005H19.9998H19.9991H19.9984H19.9977H19.997H19.9963H19.9957H19.995H19.9943H19.9936H19.9929H19.9922H19.9916H19.9909H19.9902H19.9895H19.9888H19.9881H19.9874H19.9868H19.9861H19.9854H19.9847H19.984H19.9833H19.9827H19.982H19.9813H19.9806H19.9799H19.9792H19.9785H19.9779H19.9772H19.9765H19.9758H19.9751H19.9744H19.9737H19.9731H19.9724H19.9717H19.971H19.9703H19.9696H19.969H19.9683H19.9676H19.9669H19.9662H19.9655H19.9648H19.9642H19.9635H19.9628H19.9621H19.9614H19.9607H19.9601H19.9594H19.9587H19.958H19.9573H19.9566H19.9559H19.9553H19.9546H19.9539H19.9532H19.9525H19.9518H19.9512H19.9505H19.9498H19.9491H19.9484H19.9477H19.947H19.9464H19.9457H19.945H19.9443H19.9436H19.9429H19.9422H19.9416H19.9409H19.9402H19.9395H19.9388H19.9381H19.9375H19.9368H19.9361H19.9354H19.9347H19.934H19.9333H19.9327H19.932H19.9313H19.9306H19.9299H19.9292H19.9286H19.9279H19.9272H19.9265H19.9258H19.9251H19.9244H19.9238H19.9231H19.9224H19.9217H19.921H19.9203H19.9196H19.919H19.9183H19.9176H19.9169H19.9162H19.9155H19.9149H19.9142H19.9135H19.9128H19.9121H19.9114H19.9107H19.9101H19.9094H19.9087H19.908H19.9073H19.9066H19.906H19.9053H19.9046H19.9039H19.9032H19.9025H19.9018H19.9012H19.9005H19.8998H19.8991H19.8984H19.8977H19.8971H19.8964H19.8957H19.895H19.8943H19.8936H19.8929H19.8923H19.8916H19.8909H19.8902H19.8895H19.8888H19.8881H19.8875H19.8868H19.8861H19.8854H19.8847H19.884H19.8834H19.8827H19.882H19.8813H19.8806H19.8799H19.8792H19.8786H19.8779H19.8772H19.8765H19.8758H19.8751H19.8745H19.8738H19.8731H19.8724H19.8717H19.871H19.8703H19.8697H19.869H19.8683H19.8676H19.8669H19.8662H19.8655H19.8649H19.8642H19.8635H19.8628H19.8621H19.8614H19.8608H19.8601H19.8594H19.8587H19.858H19.8573H19.8566H19.856H19.8553H19.8546H19.8539H19.8532H19.8525H19.8519H19.8512H19.8505H19.8498H19.8491H19.8484H19.8477H19.8471H19.8464H19.8457H19.845H19.8443H19.8436H19.843H19.8423H19.8416H19.8409H19.8402H19.8395H19.8388H19.8382H19.8375H19.8368H19.8361H19.8354H19.8347H19.834H19.8334H19.8327H19.832H19.8313H19.8306H19.8299H19.8293H19.8286H19.8279H19.8272H19.8265H19.8258H19.8251H19.8245H19.8238H19.8231H19.8224H19.8217H19.821H19.8204H19.8197H19.819H19.8183H19.8176H19.8169H19.8162H19.8156H19.8149H19.8142H19.8135H19.8128H19.8121H19.8114H19.8108H19.8101H19.8094H19.8087H19.808H19.8073H19.8067H19.806H19.8053H19.8046H19.8039H19.8032H19.8025H19.8019H19.8012H19.8005H19.7998H19.7991H19.7984H19.7978H19.7971H19.7965M169.323 8.32068C168.607 7.57951 167.599 7.15997 166.547 7.15997H20.4531H20.1025H19.7519M19.7519 7.15997L19.8376 7.65257C19.8239 7.65496 19.8102 7.65743 19.7965 7.65997M19.7519 7.15997C17.8234 7.4956 16.494 9.21568 16.7131 11.0756L29.92 152.262M19.7519 7.15997V7.65997H19.7526H19.7532H19.7539H19.7546H19.7553H19.756H19.7567H19.7573H19.758H19.7587H19.7594H19.7601H19.7608H19.7615H19.7621H19.7628H19.7635H19.7642H19.7649H19.7656H19.7663H19.7669H19.7676H19.7683H19.769H19.7697H19.7704H19.771H19.7717H19.7724H19.7731H19.7738H19.7745H19.7752H19.7758H19.7765H19.7772H19.7779H19.7786H19.7793H19.7799H19.7806H19.7813H19.782H19.7827H19.7834H19.7841H19.7847H19.7854H19.7861H19.7868H19.7875H19.7882H19.7888H19.7895H19.7902H19.7909H19.7916H19.7923H19.793H19.7936H19.7943H19.795H19.7957H19.7964H19.7965M19.7965 7.65997C18.1352 7.96999 17.0251 9.45062 17.2097 11.0171L17.2111 11.029L17.2109 11.029L30.4163 152.201L29.92 152.262M44.326 39.8921L44.3259 39.8921L49.3515 92.809L49.3522 92.8168L49.3527 92.8246C49.4519 94.3911 50.7974 95.6601 52.4842 95.7125H112.2H112.752L112.698 96.262L111.061 112.708L111.025 113.074L110.664 113.148L93.7171 116.616L93.6175 116.636L93.5179 116.616L76.3373 113.148L75.9756 113.075L75.9387 112.708L75.3544 106.891L75.3534 106.881L75.3528 106.871C75.2536 105.269 73.8427 103.984 72.1119 103.984H53.8794C52.9596 103.984 52.0834 104.351 51.4647 104.991C50.8458 105.645 50.55 106.494 50.6368 107.349L50.6371 107.352L52.7408 129.28L52.7415 129.287C52.8411 130.515 53.702 131.591 54.9586 131.981C54.9598 131.982 54.961 131.982 54.9622 131.982L92.1091 142.828L92.5645 142.937L92.5749 142.94L92.5852 142.943C93.1818 143.113 93.8168 143.113 94.4134 142.943C94.4139 142.943 94.4143 142.943 94.4148 142.943L132.046 131.98L132.054 131.977L132.054 131.978C133.352 131.624 134.264 130.547 134.376 129.283L134.376 129.282L139.285 75.4702L139.285 75.4644C139.372 74.6187 139.087 73.7812 138.495 73.1424C137.905 72.5052 137.058 72.1261 136.152 72.1H72.4625H72.0029L71.9643 71.642L71.0293 60.5664L70.9835 60.0243H71.5275H137.796H137.799C139.501 60.0366 140.889 58.8036 141.038 57.233C141.038 57.2329 141.038 57.2328 141.038 57.2327M44.326 39.8921L141.536 57.28L141.038 57.2327M44.326 39.8921L44.3247 39.8808C44.1391 38.3056 45.2626 36.8173 46.9393 36.5187C47.1293 36.497 47.3188 36.4975 47.5087 36.5202L47.5383 36.5237H47.5681H139.432C140.352 36.5237 141.228 36.8905 141.846 37.5301M44.326 39.8921L141.846 37.5301M141.038 57.2327L142.674 39.8924L142.674 39.8888C142.761 39.0338 142.465 38.184 141.846 37.5301M141.038 57.2327L141.846 37.5301M51.1108 42.6837H51.6587H135.341H135.889L135.839 43.2295L134.904 53.4101L134.862 53.8643H134.406H67.4369C66.5172 53.8643 65.641 54.2311 65.0224 54.8707C64.4033 55.5247 64.1075 56.3744 64.1943 57.2295L64.1946 57.2321L65.9476 75.4672C65.9477 75.4674 65.9477 75.4675 65.9477 75.4676C66.097 77.0021 67.4339 78.2208 69.0789 78.26H132.069H132.618L132.567 78.8065L128.125 126.353L128.094 126.693L127.766 126.787L93.6386 136.632L93.5 136.672L93.3614 136.632L59.2339 126.787L58.905 126.692L58.8745 126.351L57.472 110.689L57.4232 110.144H57.97H68.7225H69.18L69.2205 110.6L69.688 115.858L69.6887 115.866C69.788 117.21 70.7967 118.35 72.2135 118.657C72.2147 118.658 72.216 118.658 72.2172 118.658L93.0123 122.796L51.1108 42.6837ZM51.1108 42.6837L51.1608 43.2294M51.1108 42.6837L51.1608 43.2294M51.1608 43.2294L55.3683 89.0981L55.41 89.5525H55.8662H116.291C117.196 89.5525 118.046 89.9061 118.666 90.5358C119.267 91.1471 119.579 91.9708 119.532 92.8179L117.312 115.855L117.312 115.855M51.1608 43.2294L117.312 115.855M117.312 115.855L117.311 115.866M117.312 115.855L117.311 115.866M117.311 115.866C117.212 117.21 116.203 118.351 114.786 118.657C114.785 118.658 114.784 118.658 114.783 118.658L94.3383 122.796C94.3376 122.796 94.3369 122.796 94.3362 122.796M117.311 115.866L94.3362 122.796M94.3362 122.796C93.9042 122.881 93.4451 122.881 93.0132 122.796L94.3362 122.796ZM24.5437 13.82H23.9952L24.0459 14.3662L36.5515 149.176L36.5836 149.521L36.9184 149.612L93.369 164.939L93.5 164.974L93.631 164.939L150.082 149.612L150.416 149.521L150.448 149.176L162.954 14.3662L163.005 13.82H162.456H24.5437Z" fill="#9B91AA" stroke="#9B91AA"/>
</svg>
