<svg width="188" height="179" viewBox="0 0 188 179" fill="none" xmlns="http://www.w3.org/2000/svg">
<path d="M29.375 27.9688V151.031H158.625V27.9688H29.375ZM41.125 39.1562H146.875V139.844H41.125V39.1562ZM64.625 55.9375V86.7578V123.008C99.4638 123.008 106.435 123.455 112.956 121.609C116.775 120.491 127.23 116.912 127.23 104.326C127.23 98.7319 125.469 89.271 113.954 86.9216V86.7578H111.786C117.661 84.2406 121.355 79.4924 121.355 72.5002C121.355 70.7102 121.883 55.9375 101.321 55.9375H64.625ZM76.375 67.125H99.875C108.74 67.125 109.605 71.8978 109.605 75.461C109.605 84.1537 100.051 83.9062 99.875 83.9062H76.375V67.125ZM76.375 95.0938H104.339C115.272 95.0938 115.48 101.675 115.48 103.375C115.48 112.101 106.012 111.875 104.866 111.875H76.375V95.0938Z" fill="#7C699B"/>
</svg>
