<svg width="188" height="179" viewBox="0 0 188 179" fill="none" xmlns="http://www.w3.org/2000/svg">
<path d="M147.632 3.63813C146.891 3.75804 146.198 4.14506 145.728 4.77436L142.325 9.34113C141.385 10.6025 141.698 12.3465 143.02 13.2415C143.537 13.5911 144.13 13.7604 144.718 13.7604C145.637 13.7604 146.54 13.3468 147.116 12.5805L150.518 8.01917C151.458 6.75778 151.152 5.01384 149.83 4.11884C149.166 3.66994 148.373 3.51821 147.632 3.63813ZM60.4425 14.4815C56.6611 14.371 53.091 15.0969 49.9375 16.8304C44.8919 19.604 41.6531 24.5571 40.0234 30.6127C38.3938 36.6682 38.2545 43.9358 39.3809 52.059C39.75 54.7216 40.3056 57.5075 40.9471 60.3404C38.0527 61.2271 35.2435 62.1551 32.6395 63.181C24.6877 66.3139 18.1471 70.0625 13.454 74.434C8.76087 78.8056 5.875 83.9528 5.875 89.5C5.875 95.0472 8.76087 100.194 13.454 104.566C18.1471 108.938 24.6877 112.686 32.6395 115.819C35.2435 116.845 38.0527 117.773 40.9471 118.66C40.3056 121.492 39.75 124.273 39.3809 126.936C38.2545 135.059 38.3938 142.326 40.0234 148.382C41.6531 154.437 44.8919 159.391 49.9375 162.164C54.9831 164.938 61.1078 165.132 67.4305 163.448C73.7533 161.764 80.4332 158.245 87.2587 153.255C89.4951 151.619 91.745 149.769 94 147.825C96.2541 149.768 98.5059 151.62 100.741 153.255C107.567 158.245 114.247 161.764 120.569 163.448C126.892 165.132 133.017 164.938 138.062 162.164C143.108 159.391 146.347 154.437 147.977 148.382C149.606 142.326 149.745 135.059 148.619 126.936C148.25 124.276 147.693 121.494 147.053 118.665C149.948 117.778 152.756 116.845 155.36 115.819C163.312 112.686 169.853 108.938 174.546 104.566C179.239 100.194 182.125 95.0472 182.125 89.5C182.125 83.9528 179.239 78.8056 174.546 74.434C169.853 70.0625 163.312 66.3139 155.36 63.181C152.756 62.1549 149.948 61.2218 147.053 60.3349C147.693 57.5055 148.25 54.724 148.619 52.0645C149.745 43.9412 149.606 36.6737 147.977 30.6181C146.347 24.5626 143.108 19.6095 138.062 16.8359C133.017 14.0623 126.892 13.8682 120.569 15.5522C114.247 17.2362 107.567 20.7551 100.741 25.7455C98.5059 27.3799 96.2541 29.2317 94 31.1753C91.745 29.2307 89.4951 27.3751 87.2587 25.74C80.4332 20.7496 73.7533 17.2307 67.4305 15.5467C65.0595 14.9152 62.7114 14.5478 60.4425 14.4815ZM158.338 15.1315C157.958 15.1615 157.578 15.2639 157.219 15.4429L152.016 18.0377C150.579 18.7565 150.021 20.4529 150.776 21.8178C151.302 22.7743 152.324 23.3146 153.381 23.3146C153.839 23.3146 154.306 23.2131 154.741 22.9977L159.945 20.3975C161.381 19.6787 161.939 17.9877 161.184 16.6228C160.618 15.595 159.478 15.0416 158.338 15.1315ZM60.3048 20.0588C62.0136 20.1161 63.8624 20.4097 65.847 20.9383C71.1395 22.3479 77.266 25.4969 83.6729 30.1811C85.6612 31.6349 87.6865 33.284 89.7142 35.021C83.9024 40.5152 78.1372 46.9878 72.6113 54.2277C63.2634 55.1641 54.4958 56.6839 46.5927 58.7289C46.0263 56.1877 45.5382 53.694 45.21 51.327C44.1527 43.702 44.3507 37.0744 45.7148 32.0056C47.0789 26.9369 49.4907 23.5362 52.875 21.6758C54.9902 20.513 57.4568 19.9633 60.3048 20.0588ZM127.689 20.0643C130.538 19.9688 133.01 20.5185 135.125 21.6812C138.509 23.5416 140.921 26.9369 142.285 32.0056C143.649 37.0744 143.842 43.7075 142.784 51.3325C142.456 53.6992 141.974 56.188 141.407 58.7289C133.504 56.6839 124.737 55.1641 115.389 54.2277C109.863 46.9878 104.097 40.521 98.2858 35.0265C100.313 33.2895 102.333 31.6403 104.321 30.1866C110.728 25.5023 116.855 22.3479 122.147 20.9383C124.132 20.4097 125.981 20.1216 127.689 20.0643ZM162.802 29.3945L156.99 30.2248C155.386 30.4542 154.282 31.8825 154.523 33.4095C154.743 34.7996 155.995 35.7913 157.426 35.7913C157.57 35.7913 157.712 35.7781 157.862 35.7585L163.674 34.9282C165.278 34.6988 166.387 33.276 166.147 31.7489C165.906 30.2246 164.412 29.1931 162.802 29.3945ZM94 38.8667C98.5486 43.1598 103.115 48.103 107.569 53.5995C103.135 53.3247 98.6278 53.1406 94 53.1406C89.3702 53.1406 84.8607 53.3245 80.4255 53.5995C84.8804 48.1017 89.4503 43.1605 94 38.8667ZM158.132 43.6465C156.519 43.5598 155.119 44.733 155.028 46.2741C154.931 47.818 156.172 49.1427 157.793 49.2294L163.657 49.5517C163.715 49.5545 163.77 49.5571 163.829 49.5571C165.371 49.5571 166.664 48.4038 166.755 46.9187C166.852 45.3748 165.617 44.0555 163.995 43.9688L158.132 43.6465ZM94 58.7344C100.248 58.7344 106.318 59.0261 112.17 59.5374C115.561 64.1067 118.857 68.9663 121.981 74.1172C125.106 79.2702 127.879 84.4176 130.34 89.5C127.879 94.5824 125.106 99.7298 121.981 104.883C118.857 110.034 115.561 114.893 112.17 119.463C106.318 119.974 100.248 120.266 94 120.266C87.7521 120.266 81.6823 119.974 75.83 119.463C72.4379 114.892 69.1382 110.036 66.0134 104.883C62.8888 99.7298 60.1214 94.5769 57.6599 89.4945C60.1201 84.4157 62.891 79.2665 66.0134 74.1172C69.1382 68.9641 72.4379 64.1083 75.83 59.5374C81.6823 59.0261 87.7521 58.7344 94 58.7344ZM68.1305 60.3568C65.6629 63.8762 63.2392 67.5029 60.9244 71.3203C58.6113 75.1349 56.5279 78.9456 54.5618 82.7373C51.7891 76.3162 49.5773 70.0836 47.9467 64.1861C54.1267 62.5817 60.9029 61.2811 68.1305 60.3568ZM119.864 60.3568C127.093 61.2812 133.872 62.5813 140.053 64.1861C138.423 70.0837 136.211 76.3215 133.438 82.7427C131.471 78.9481 129.385 75.1379 127.07 71.3203C124.756 67.5043 122.33 63.8751 119.864 60.3568ZM42.3069 65.7976C44.3987 73.3368 47.4002 81.3239 51.2227 89.5C47.4001 97.6764 44.3987 105.663 42.3069 113.202C39.7133 112.399 37.2048 111.558 34.8885 110.646C27.4245 107.705 21.4902 104.227 17.5619 100.567C13.6336 96.9082 11.75 93.2208 11.75 89.5C11.75 85.7792 13.6336 82.0919 17.5619 78.4327C21.4902 74.7735 27.4245 71.2948 34.8885 68.3541C37.2048 67.4416 39.7133 66.601 42.3069 65.7976ZM145.687 65.7976C148.283 66.6014 150.794 67.441 153.111 68.3541C160.576 71.2948 166.51 74.7735 170.438 78.4327C174.366 82.0919 176.25 85.7792 176.25 89.5C176.25 93.2208 174.366 96.9082 170.438 100.567C166.51 104.227 160.576 107.705 153.111 110.646C150.795 111.558 148.287 112.399 145.693 113.202C143.602 105.663 140.594 97.6769 136.772 89.5C140.593 81.3252 143.596 73.3356 145.687 65.7976ZM94 69.9219C82.6784 69.9219 73.4375 78.7204 73.4375 89.5C73.4375 100.28 82.6784 109.078 94 109.078C105.322 109.078 114.562 100.28 114.562 89.5C114.562 78.7204 105.322 69.9219 94 69.9219ZM94 75.5156C102.146 75.5156 108.688 81.7435 108.688 89.5C108.688 97.2565 102.146 103.484 94 103.484C85.8535 103.484 79.3125 97.2565 79.3125 89.5C79.3125 81.7435 85.8535 75.5156 94 75.5156ZM133.438 96.2573C136.211 102.679 138.423 108.916 140.053 114.814C133.872 116.419 127.093 117.719 119.864 118.643C122.33 115.125 124.756 111.496 127.07 107.68C129.385 103.862 131.471 100.052 133.438 96.2573ZM54.5618 96.2628C56.5277 100.054 58.6117 103.866 60.9244 107.68C63.2392 111.497 65.6629 115.124 68.1305 118.643C60.9029 117.719 54.1267 116.418 47.9467 114.814C49.5773 108.916 51.7891 102.684 54.5618 96.2628ZM46.5927 120.271C54.4958 122.316 63.2634 123.836 72.6113 124.772C78.1372 132.012 83.9024 138.485 89.7142 143.979C87.6865 145.716 85.6612 147.36 83.6729 148.813C77.266 153.498 71.1395 156.652 65.847 158.062C60.5546 159.471 56.2593 159.185 52.875 157.324C49.4907 155.464 47.0732 152.063 45.7091 146.994C44.345 141.926 44.1527 135.292 45.21 127.668C45.5382 125.301 46.0263 122.812 46.5927 120.271ZM141.407 120.271C141.974 122.812 142.456 125.301 142.784 127.668C143.842 135.292 143.649 141.926 142.285 146.994C140.921 152.063 138.509 155.458 135.125 157.319C131.741 159.179 127.445 159.471 122.153 158.062C116.861 156.652 110.728 153.498 104.321 148.813C102.333 147.36 100.314 145.711 98.2858 143.974C104.097 138.479 109.863 132.012 115.389 124.772C124.737 123.836 133.504 122.316 141.407 120.271ZM25.2958 122.27C23.6772 122.063 22.2083 123.141 21.9968 124.674C21.7795 126.207 22.9115 127.611 24.5212 127.815L30.3446 128.552C30.4768 128.569 30.6055 128.58 30.7347 128.58C32.1859 128.58 33.4497 127.553 33.6436 126.149C33.8609 124.616 32.7289 123.212 31.1191 123.008L25.2958 122.27ZM80.4255 125.401C84.8607 125.676 89.3702 125.859 94 125.859C98.6278 125.859 103.135 125.675 107.569 125.401C103.115 130.897 98.5488 135.84 94 140.133C89.4504 135.84 84.8803 130.898 80.4255 125.401ZM29.8455 136.539L23.9762 136.73C22.3518 136.78 21.0804 138.07 21.1362 139.614C21.1891 141.127 22.4935 142.318 24.068 142.318C24.1032 142.318 24.1419 142.321 24.1713 142.318L30.0405 142.127C31.665 142.077 32.9363 140.787 32.8805 139.243C32.8276 137.696 31.464 136.435 29.8455 136.539ZM32.3871 149.666C32.0071 149.629 31.6174 149.664 31.2281 149.78L25.6056 151.414C24.0546 151.864 23.182 153.428 23.6549 154.904C24.0397 156.11 25.206 156.887 26.4662 156.887C26.7482 156.887 27.0332 156.845 27.321 156.762L32.9436 155.128C34.4946 154.678 35.3702 153.114 34.8943 151.638C34.5418 150.53 33.5269 149.777 32.3871 149.666ZM38.6121 160.968C37.8626 160.914 37.0917 161.128 36.4778 161.629L32.0199 165.278C30.7891 166.282 30.6498 168.05 31.7043 169.222C32.286 169.868 33.1107 170.194 33.9362 170.194C34.6147 170.194 35.2944 169.97 35.8467 169.517L40.3046 165.873C41.5354 164.869 41.6747 163.101 40.6201 161.929C40.0899 161.343 39.3615 161.021 38.6121 160.968Z" fill="#9B91AA"/>
</svg>
