<svg width="188" height="179" viewBox="0 0 188 179" fill="none" xmlns="http://www.w3.org/2000/svg">
<g clip-path="url(#clip0)">
<path d="M161.794 99.5311C155.225 99.5633 149.532 101.067 144.761 103.304C143.016 99.9894 141.249 97.0717 140.952 94.9022C140.606 92.3711 140.204 90.8604 140.621 87.8424C141.039 84.8245 142.873 80.5535 142.843 80.2349C142.817 79.9163 142.434 78.3805 138.643 78.3518C134.853 78.3268 131.612 79.0464 131.229 79.9986C130.845 80.9509 130.116 83.0953 129.665 85.3328C128.999 88.605 122.099 100.276 118.178 106.38C116.896 103.995 115.805 101.898 115.58 100.236C115.234 97.7053 114.831 96.1946 115.249 93.1766C115.666 90.1587 117.501 85.8877 117.471 85.5691C117.445 85.2505 117.061 83.7147 113.271 83.686C109.481 83.661 106.24 84.3806 105.856 85.3328C105.473 86.2851 105.067 88.5119 104.292 90.667C103.514 92.8222 94.3393 112.287 91.9367 117.331C90.7109 119.901 89.6469 121.967 88.8949 123.378C88.8911 123.374 88.8911 123.37 88.8911 123.37C88.8911 123.37 88.846 123.463 88.7633 123.625C88.1203 124.824 87.7368 125.49 87.7368 125.49C87.7368 125.49 87.7405 125.5 87.7481 125.515C87.2367 126.395 86.6915 127.215 86.4208 127.215C86.2328 127.215 85.853 124.867 86.5035 121.648C87.8684 114.896 91.1471 104.364 91.117 104.003C91.102 103.816 91.7261 101.983 88.9738 101.02C86.3005 100.09 85.3454 101.643 85.101 101.647C84.8641 101.65 84.6874 102.195 84.6874 102.195C84.6874 102.195 87.6691 90.352 79.0023 90.352C73.5879 90.352 66.0829 95.9941 62.3831 101.106C60.0519 102.316 55.0586 104.912 49.7608 107.683C47.7266 108.746 45.6511 109.834 43.6809 110.869C43.5455 110.729 43.4139 110.586 43.2748 110.447C32.7693 99.7746 13.3527 92.2279 14.1761 77.8829C14.4769 72.6668 16.3795 58.9339 51.4904 42.2762C80.2506 28.6292 103.277 32.3846 107.255 40.7081C112.94 52.5973 94.9485 74.6967 65.0828 77.8829C53.7013 79.0965 47.7116 74.8971 46.2189 73.3327C44.6509 71.6859 44.4178 71.6107 43.8313 71.9222C42.8762 72.4269 43.4816 73.8804 43.8313 74.7468C44.7224 76.9556 48.3809 80.8757 54.6225 82.8233C60.1121 84.5381 73.4713 85.4796 89.6318 79.5297C107.729 72.8637 121.859 54.3229 117.712 38.8251C113.489 23.0623 86.041 17.882 60.0632 26.6674C44.6021 31.8978 27.8663 40.1067 15.8305 50.8216C1.51999 63.5664 -0.758574 74.6573 0.181426 79.2898C3.52407 95.7578 27.3587 106.48 36.9053 114.427C36.4353 114.675 35.9917 114.907 35.5893 115.118C30.8029 117.374 12.6345 126.428 8.08871 135.993C2.93375 146.844 8.90839 154.631 12.8677 155.68C25.1253 158.927 37.7062 153.084 44.4667 143.483C51.2272 133.885 50.4 121.387 47.298 115.681C47.2604 115.609 47.2153 115.541 47.1777 115.469C48.4147 114.771 49.6743 114.066 50.9226 113.368C53.3591 112.007 55.7505 110.737 57.826 109.659C56.6641 112.688 55.8144 116.318 55.3707 121.562C54.8518 127.724 57.5026 135.686 60.9731 138.818C62.4997 140.196 64.3383 140.229 65.5039 140.229C69.5421 140.229 71.3845 137.032 73.4112 133.248C75.9003 128.608 78.1074 123.209 78.1074 123.209C78.1074 123.209 75.3363 137.798 82.8864 137.798C85.6349 137.798 88.4023 134.4 89.6356 132.671C89.6394 132.689 89.6393 132.7 89.6393 132.7C89.6393 132.7 89.7108 132.589 89.8499 132.36C90.1357 131.944 90.2973 131.68 90.2973 131.68C90.2973 131.68 90.3049 131.651 90.3124 131.604C91.4178 129.779 93.8693 125.611 97.5466 118.738C102.296 109.859 106.853 98.7399 106.853 98.7399C106.853 98.7399 107.278 101.461 108.665 105.954C109.481 108.599 111.218 111.524 112.587 114.327C111.485 115.784 110.808 116.618 110.808 116.618C110.808 116.618 110.816 116.633 110.827 116.661C109.947 117.775 108.958 118.974 107.924 120.148C104.176 124.401 99.7086 129.256 99.1108 130.659C98.4077 132.31 98.5731 133.527 99.9342 134.501C100.927 135.213 102.698 135.324 104.548 135.206C107.917 134.991 110.289 134.193 111.459 133.709C113.282 133.097 115.407 132.131 117.399 130.734C121.077 128.16 123.295 124.477 123.085 119.597C122.968 116.908 122.066 114.245 120.926 111.728C121.261 111.27 121.596 110.812 121.93 110.343C127.728 102.27 132.225 93.4022 132.225 93.4022C132.225 93.4022 132.65 96.123 134.037 100.616C134.741 102.893 136.128 105.374 137.373 107.808C131.921 112.025 128.54 116.926 127.363 120.141C125.194 126.088 126.893 128.783 130.082 129.395C131.526 129.675 133.567 129.045 135.102 128.425C137.012 127.824 139.305 126.818 141.448 125.318C145.126 122.744 148.664 119.139 148.449 114.259C148.352 112.04 147.72 109.834 146.863 107.715C151.484 105.882 157.47 104.862 165.091 105.71C181.444 107.529 184.651 117.249 184.038 121.315C183.425 125.386 179.996 127.62 178.849 128.296C177.702 128.973 177.353 129.206 177.45 129.707C177.589 130.437 178.12 130.409 179.097 130.251C180.443 130.036 187.681 126.943 187.993 119.432C188.384 109.917 178.789 99.4452 161.794 99.5311ZM35.7661 139.985C30.3517 145.609 22.7828 147.736 19.5379 145.946C16.0336 144.013 17.421 135.729 24.0687 129.761C28.1182 126.123 33.3484 122.772 36.8189 120.707C37.6085 120.256 38.7665 119.59 40.1765 118.784C40.4097 118.659 40.5413 118.587 40.5413 118.587L40.5375 118.58C40.8082 118.426 41.0902 118.265 41.376 118.101C43.7937 126.6 41.4512 134.082 35.7661 139.985ZM75.2197 114.445C73.3322 118.824 69.3842 130.026 66.9816 129.424C64.9173 128.909 63.6615 120.392 66.568 112.015C68.0306 107.797 71.1552 102.757 72.9938 100.798C75.9492 97.6516 79.2053 96.6206 79.9949 97.8986C81.0064 99.524 76.4041 111.7 75.2197 114.445ZM107.819 129.256C107.018 129.653 106.285 129.904 105.946 129.711C105.695 129.567 106.277 129.045 106.277 129.045C106.277 129.045 110.353 124.867 111.962 122.966C112.895 121.86 113.982 120.546 115.158 119.078C115.17 119.225 115.174 119.371 115.174 119.515C115.158 124.52 110.082 127.895 107.819 129.256ZM132.932 123.804C132.334 123.399 132.436 122.092 134.395 118.025C135.165 116.429 136.921 113.737 139.978 111.166C140.332 112.222 140.55 113.235 140.542 114.18C140.501 120.478 135.782 122.83 132.932 123.804Z" fill="#7C699B"/>
</g>
<defs>
<clipPath id="clip0">
<rect width="188" height="179" fill="white"/>
</clipPath>
</defs>
</svg>
