<svg width="973" height="518" viewBox="0 0 973 518" fill="none" xmlns="http://www.w3.org/2000/svg">
<g clip-path="url(#clip0)">
<path opacity="0.1" d="M908.388 414.576C907.304 416.913 906.223 419.218 905.146 421.493C903.464 425.026 901.804 428.491 900.166 431.887C899.437 433.392 898.708 434.869 897.998 436.346C889.962 452.769 882.459 467.295 876.086 479.241C870.304 490.065 861.718 499.134 851.228 505.498C840.738 511.863 828.73 515.288 816.463 515.415L674.762 516.957H673.267L661.12 517.088L650.73 517.2L618.867 517.546H617.578L601.357 517.723H600.861L500.882 518.808L411.638 519.742L401.257 519.855L336.784 520.556H336.709L294.895 521.004H294.447L162.23 522.435L122.678 522.865C114.237 522.96 105.832 521.756 97.7573 519.294C83.706 515.048 71.078 507.049 61.2319 496.159C44.2447 477.437 31.864 455.592 23.548 431.887C22.3457 428.466 21.2244 425.001 20.1842 421.493C-8.60443 324.141 26.4913 198.541 89.6561 114.49C92.3036 110.975 94.9946 107.548 97.7293 104.208L97.7947 104.133C117.221 80.2786 139.001 60.3502 162.202 46.1797C203.315 21.026 248.867 13.9408 293.671 35.0564C331.579 52.9284 366.974 61.3316 401.285 63.6124C404.751 63.8367 408.218 64.005 411.666 64.1078C490.37 66.5848 564.131 38.2158 650.749 19.9044C654.196 19.1753 657.654 18.4555 661.139 17.7732C722.93 5.47212 791.477 -1.01491 872.993 12.6228C881.462 14.0068 889.819 16.0062 897.998 18.6051C901.592 19.7642 905.055 21.0105 908.388 22.344C947.296 38.1784 968.516 67.4354 977.533 104.096C978.387 107.498 979.125 110.96 979.748 114.48C995.735 202.663 948.913 327.749 908.388 414.576Z" fill="#7C699B"/>
<g opacity="0.1">
<path opacity="0.1" d="M152.212 41.2123V517.57L112.66 518C104.219 518.095 95.8139 516.891 87.7394 514.429V99.1656H87.8048C107.231 75.2832 129.011 55.3548 152.212 41.2123Z" fill="#7C699B"/>
<path opacity="0.1" d="M969.804 109.522H79.6661C82.3136 106.008 85.0046 102.58 87.7393 99.2404V99.1656H967.59C968.443 102.549 969.181 106.002 969.804 109.522Z" fill="#7C699B"/>
<path opacity="0.1" d="M898.398 17.386V416.516H895.156C893.474 420.05 891.814 423.514 890.176 426.91C889.447 428.415 888.718 429.892 888.008 431.369V13.6097C891.602 14.7687 895.066 16.0275 898.398 17.386Z" fill="#7C699B"/>
<path opacity="0.1" d="M651.149 12.7778V512.158L640.759 512.27V14.909C644.206 14.1799 647.664 13.4601 651.149 12.7778Z" fill="#7C699B"/>
<path opacity="0.1" d="M401.676 59.1124V514.869L391.295 514.981V58.617C394.762 58.8413 398.228 58.9722 401.676 59.1124Z" fill="#7C699B"/>
<path opacity="0.1" d="M895.156 416.526C893.474 420.059 891.814 423.524 890.176 426.92H13.558C12.3558 423.499 11.2345 420.034 10.1942 416.526H895.156Z" fill="#7C699B"/>
</g>
<path d="M215.471 248.48H197.717V302.376H215.471V248.48Z" fill="#3F3D56"/>
<path d="M693.253 245.675H675.499V302.694H693.253V245.675Z" fill="#3F3D56"/>
<path d="M806.473 498.819V510.971L664.52 512.279L663.007 512.308L609.055 512.803L607.765 512.822L591.367 512.962H590.881L490.92 513.887L326.831 515.411H326.691L284.971 515.803L284.522 515.813L99.1389 517.514V503.493L142.728 477.321L230.187 476.591L232.056 476.582L232.673 476.573L234.542 476.545L276.533 476.199L278.411 476.19L279.009 476.18L280.878 476.171L294.343 476.059L294.698 476.049L327.915 475.769H328.186L587.386 473.582L593.731 473.535H594.366L599.206 473.488L634.386 473.198L636.255 473.17L637.984 473.152H638.881L649.822 473.068L651.99 473.039L654.896 473.021L664.006 472.937L678.461 472.815L680.33 472.796L683.582 472.778H684.189L753.998 472.18L806.473 498.819Z" fill="#65617D"/>
<path opacity="0.2" d="M806.473 498.819V510.971L664.52 512.279L663.007 512.308L609.055 512.803L607.765 512.822L591.367 512.962H590.881L490.92 513.887L326.831 515.411H326.691L284.971 515.803L284.522 515.813L99.1389 517.514V503.493L142.728 477.321L230.187 476.591L232.056 476.582L232.673 476.573L234.542 476.545L276.533 476.199L278.411 476.19L279.009 476.18L280.878 476.171L294.343 476.059L294.698 476.049L327.915 475.769H328.186L587.386 473.582L593.731 473.535H594.366L599.206 473.488L634.386 473.198L636.255 473.17L637.984 473.152H638.881L649.822 473.068L651.99 473.039L654.896 473.021L664.006 472.937L678.461 472.815L680.33 472.796L683.582 472.778H684.189L753.998 472.18L806.473 498.819Z" fill="black"/>
<path d="M276.673 452.092V474.984C276.674 476.068 276.367 477.13 275.788 478.047C275.209 478.963 274.382 479.697 273.403 480.162C272.674 480.516 271.877 480.707 271.067 480.723L238.457 481.415C237.586 481.436 236.722 481.253 235.934 480.882C234.937 480.425 234.093 479.691 233.502 478.768C232.911 477.845 232.597 476.772 232.598 475.675V452.092H276.673Z" fill="#3F3D56"/>
<path opacity="0.1" d="M276.673 452.092V474.984C276.674 476.068 276.367 477.13 275.788 478.047C275.209 478.963 274.382 479.697 273.403 480.162C272.674 480.516 271.877 480.707 271.067 480.723L238.457 481.415C237.586 481.436 236.722 481.253 235.934 480.882C234.937 480.425 234.093 479.691 233.502 478.768C232.911 477.845 232.597 476.772 232.598 475.675V452.092H276.673Z" fill="black"/>
<path d="M278.542 452.092V474.984C278.542 476.068 278.235 477.13 277.657 478.047C277.078 478.963 276.251 479.697 275.272 480.162C274.543 480.516 273.746 480.707 272.936 480.723L240.325 481.415C239.454 481.436 238.591 481.253 237.802 480.882C236.806 480.425 235.962 479.691 235.371 478.768C234.779 477.845 234.466 476.772 234.467 475.675V452.092H278.542Z" fill="#3F3D56"/>
<path d="M680.33 452.092H636.255V481.536H680.33V452.092Z" fill="#3F3D56"/>
<path opacity="0.1" d="M680.33 452.092H636.255V481.536H680.33V452.092Z" fill="black"/>
<path d="M678.461 452.092H634.386V481.536H678.461V452.092Z" fill="#3F3D56"/>
<path opacity="0.1" d="M215.471 248.47V253.826L197.717 253.368V248.47H215.471Z" fill="black"/>
<path d="M332.325 97.5859L310.993 250.882C310.858 251.861 310.367 252.756 309.614 253.396C308.86 254.035 307.898 254.375 306.91 254.35L136.103 249.919L132.861 249.835C132.296 249.822 131.741 249.689 131.231 249.447C130.721 249.204 130.268 248.857 129.901 248.427C129.534 247.998 129.262 247.496 129.103 246.954C128.943 246.412 128.899 245.843 128.974 245.283L152.922 84.8082C153.077 83.8142 153.598 82.9142 154.384 82.286C155.169 81.6578 156.161 81.347 157.165 81.4151L328.588 93.0244C329.141 93.0565 329.681 93.2029 330.175 93.4544C330.669 93.7059 331.105 94.0571 331.456 94.4857C331.807 94.9143 332.066 95.4111 332.216 95.9447C332.365 96.4783 332.403 97.0371 332.325 97.5859Z" fill="#65617D"/>
<path d="M164.387 92.688L146.326 234.141L303.303 239.123L322.608 102.652L164.387 92.688Z" fill="#7227EC"/>
<path d="M545.628 90.5007H364.347C361.597 90.5007 359.367 92.7312 359.367 95.4828V247.536C359.367 250.287 361.597 252.518 364.347 252.518H545.628C548.379 252.518 550.609 250.287 550.609 247.536V95.4828C550.609 92.7312 548.379 90.5007 545.628 90.5007Z" fill="#65617D"/>
<path d="M542.19 101.409H368.393V236.319H542.19V101.409Z" fill="#7C699B"/>
<path opacity="0.1" d="M693.253 245.666V249.209L675.499 249.573V245.666H693.253Z" fill="black"/>
<path d="M773.358 242.675C773.383 243.062 773.33 243.451 773.202 243.817C773.073 244.183 772.872 244.519 772.61 244.806C772.348 245.092 772.031 245.323 771.678 245.483C771.325 245.644 770.943 245.732 770.555 245.741L595.637 249.358C594.91 249.373 594.205 249.113 593.662 248.629C593.12 248.145 592.78 247.474 592.712 246.75L577.678 90.3885C577.641 90.0006 577.683 89.6092 577.801 89.2379C577.92 88.8667 578.113 88.5234 578.368 88.2289C578.623 87.9344 578.935 87.6947 579.285 87.5245C579.636 87.3542 580.017 87.2569 580.406 87.2385L753.998 78.6015L755.866 78.5081C756.609 78.4689 757.338 78.72 757.899 79.2083C758.461 79.6966 758.811 80.384 758.875 81.1253L773.358 242.675Z" fill="#65617D"/>
<path d="M587.667 96.4269L746.205 88.6312L759.594 230.71L602.308 234.449L587.667 96.4269Z" fill="#4E2C87"/>
<path opacity="0.1" d="M773.358 242.675C773.383 243.062 773.33 243.451 773.202 243.817C773.073 244.183 772.872 244.519 772.61 244.806C772.348 245.092 772.031 245.323 771.678 245.483C771.325 245.644 770.943 245.732 770.555 245.741L753.998 78.6015L755.866 78.5081C756.609 78.4689 757.338 78.72 757.9 79.2083C758.461 79.6966 758.811 80.384 758.875 81.1253L773.358 242.675Z" fill="black"/>
<path opacity="0.1" d="M157.193 81.4057L136.103 249.919L132.861 249.835C132.296 249.822 131.741 249.689 131.231 249.447C130.721 249.204 130.268 248.857 129.901 248.427C129.534 247.998 129.262 247.496 129.103 246.954C128.943 246.412 128.899 245.843 128.974 245.283L152.922 84.8082C153.075 83.8073 153.599 82.9009 154.391 82.2701C155.183 81.6393 156.183 81.3306 157.193 81.4057Z" fill="black"/>
<path opacity="0.1" d="M215.471 286.411H197.717V302.376H215.471V286.411Z" fill="black"/>
<path opacity="0.1" d="M278.542 452.083V456.728L234.467 457.906V452.083H278.542Z" fill="black"/>
<path d="M356.33 291.973V449.194C356.319 450.154 355.939 451.073 355.269 451.76C354.6 452.447 353.691 452.851 352.733 452.887L173.657 457.654H173.61C172.635 457.642 171.703 457.249 171.013 456.559C170.324 455.869 169.931 454.937 169.919 453.962V291.973C169.931 290.997 170.324 290.065 171.013 289.375C171.703 288.685 172.635 288.293 173.61 288.28H352.639C353.614 288.293 354.546 288.685 355.236 289.375C355.925 290.065 356.318 290.997 356.33 291.973Z" fill="#65617D"/>
<path opacity="0.1" d="M173.657 288.28V457.654H173.61C172.635 457.642 171.703 457.249 171.013 456.559C170.324 455.869 169.931 454.937 169.919 453.962V291.973C169.931 290.997 170.324 290.065 171.013 289.375C171.703 288.685 172.635 288.293 173.61 288.28H173.657Z" fill="black"/>
<path d="M181.833 298.319H347.687V436.893L181.833 440.632V298.319Z" fill="#D4DFEC"/>
<path opacity="0.1" d="M693.253 286.411H675.499V302.694H693.253V286.411Z" fill="black"/>
<path opacity="0.1" d="M678.461 452.083V458.074L634.386 456.897V452.083H678.461Z" fill="black"/>
<path d="M736.627 291.973V453.962C736.615 454.945 736.216 455.884 735.516 456.575C734.816 457.266 733.873 457.654 732.89 457.654L553.776 452.887C552.817 452.851 551.909 452.447 551.239 451.76C550.57 451.073 550.19 450.154 550.179 449.194V291.973C550.191 290.997 550.584 290.065 551.273 289.375C551.963 288.685 552.894 288.293 553.87 288.28H732.899C733.88 288.283 734.822 288.671 735.519 289.362C736.217 290.053 736.615 290.991 736.627 291.973Z" fill="#65617D"/>
<path opacity="0.1" d="M736.627 291.973V453.962C736.615 454.945 736.216 455.884 735.516 456.575C734.817 457.266 733.873 457.654 732.89 457.654V288.28C733.873 288.28 734.817 288.668 735.516 289.359C736.216 290.05 736.615 290.989 736.627 291.973Z" fill="black"/>
<path d="M724.714 298.319H558.859V436.893L724.714 440.632V298.319Z" fill="#D4DFEC"/>
<path d="M545.544 291.973V449.194C545.533 450.154 545.153 451.073 544.483 451.76C543.814 452.447 542.906 452.851 541.947 452.887L362.871 457.654C361.888 457.654 360.944 457.266 360.244 456.575C359.545 455.884 359.145 454.945 359.133 453.962V291.973C359.145 290.997 359.538 290.065 360.228 289.375C360.917 288.685 361.849 288.293 362.824 288.28H541.853C542.828 288.293 543.76 288.685 544.45 289.375C545.139 290.065 545.532 290.997 545.544 291.973Z" fill="#65617D"/>
<path d="M371.047 298.319H536.901V436.893L371.047 440.632V298.319Z" fill="#D4DFEC"/>
<path opacity="0.1" d="M806.473 498.819V510.971L664.52 512.279L663.007 512.307L609.055 512.803L607.765 512.822L591.367 512.962H590.881L490.92 513.887L326.831 515.411H326.691L284.971 515.803L284.522 515.813L99.1389 517.514V503.493L288.362 502.25H288.811L327.112 501.988H327.289L591.797 500.24H592.068L592.226 500.231H592.666L597.141 500.203H598.506L668.108 499.735L672.22 499.717L673.135 499.707L806.473 498.819Z" fill="black"/>
<path d="M455.291 302.376C481.78 302.376 503.254 280.895 503.254 254.396C503.254 227.898 481.78 206.417 455.291 206.417C428.803 206.417 407.329 227.898 407.329 254.396C407.329 280.895 428.803 302.376 455.291 302.376Z" fill="#FBBEBE"/>
<path d="M503.263 352.543C503.263 352.543 410.291 363.76 419.168 352.543C422.382 348.487 423.27 336.466 423.092 322.772C423.036 318.612 422.887 314.303 422.672 310.013C421.644 289.449 419.168 269.352 419.168 269.352C419.168 269.352 500.46 231.028 491.116 261.407C487.378 273.68 488.602 290.916 491.443 307.097C492.274 311.817 493.237 316.444 494.246 320.837C496.709 331.553 499.718 342.135 503.263 352.543Z" fill="#FBBEBE"/>
<path opacity="0.1" d="M503.263 352.543C503.263 352.543 410.291 363.76 419.168 352.543C422.382 348.487 423.27 336.466 423.092 322.772C437.267 316.715 455.301 321.23 455.301 321.23C474.287 317.444 486.463 318.183 494.246 320.837C496.709 331.553 499.718 342.135 503.263 352.543Z" fill="black"/>
<path d="M326.794 516.467V515.682L490.892 513.897L590.872 512.962H591.152L591.049 514.345L591.189 512.962H591.367V512.803L592.647 500.231L593.133 495.473L593.282 493.987L593.413 492.744L599.188 473.479L604.962 454.242L609.821 438.043L617.24 413.291C617.24 413.291 613.035 403.477 610.699 400.673C608.363 397.868 606.027 378.706 606.027 378.706C606.027 378.706 586.087 359.703 577.37 357.516C573.716 356.581 566.503 355.338 558.841 353.777C555.972 353.198 553.029 352.581 550.197 351.908C548.6 351.543 547.03 351.16 545.525 350.777C542.598 350.045 539.712 349.153 536.882 348.103C535.399 347.564 533.987 346.845 532.678 345.963C525.81 340.925 508.598 340.354 507.935 340.354C507.933 340.333 507.933 340.311 507.935 340.289V340.205C507.959 339.813 507.959 339.419 507.935 339.027C507.935 338.653 507.935 338.214 507.851 337.718C507.851 337.569 507.851 337.41 507.785 337.251C507.739 336.915 507.683 336.559 507.599 336.185C507.57 336.018 507.533 335.853 507.486 335.69C507.216 334.564 506.824 333.47 506.318 332.428C506.253 332.278 506.169 332.119 506.094 331.97C505.636 331.106 505.105 330.284 504.506 329.511C504.384 329.353 504.253 329.184 504.113 329.025C503.348 328.123 502.497 327.296 501.572 326.558C501.319 326.361 501.058 326.156 500.787 325.969C500.636 325.846 500.477 325.734 500.31 325.632L499.479 325.09L498.703 324.641C498.021 324.268 497.302 323.903 496.517 323.557C496.274 323.445 496.012 323.342 495.751 323.239C495.489 323.137 495.078 322.978 494.732 322.847H494.676L493.975 322.566C493.443 322.389 492.901 322.23 492.331 322.071L491.462 321.847L490.527 321.632L489.593 321.435C488.658 321.248 487.659 321.08 486.612 320.949L485.547 320.818L484.454 320.706L483.323 320.613L481.716 320.519L479.847 320.454C471.605 320.453 463.386 321.327 455.329 323.062C449.731 321.816 443.998 321.288 438.267 321.491H437.454L436.519 321.548H435.921L434.716 321.66C434.314 321.66 433.903 321.744 433.501 321.8C433.1 321.856 432.679 321.903 432.277 321.968L431.661 322.071C431.053 322.174 430.437 322.286 429.792 322.417C429.586 322.454 429.381 322.501 429.175 322.557C428.362 322.735 427.549 322.95 426.746 323.193C426.344 323.305 425.942 323.436 425.54 323.576C425.335 323.632 425.139 323.707 424.942 323.782L424.344 323.997L423.756 324.23L423.055 324.511C422.7 324.66 422.354 324.819 422.008 324.987C421.812 325.072 421.616 325.165 421.429 325.268C421.242 325.371 421.046 325.455 420.868 325.558C418.756 326.65 416.803 328.027 415.066 329.652L414.589 330.11L414.122 330.586C413.963 330.745 413.814 330.914 413.664 331.082C413.055 331.748 412.487 332.45 411.964 333.185C411.814 333.381 411.674 333.578 411.534 333.783C410.941 334.658 410.404 335.57 409.927 336.513C409.805 336.737 409.693 336.971 409.581 337.195C408.818 338.774 408.193 340.416 407.712 342.102C407.538 342.725 407.379 343.349 407.236 343.972C407.236 343.972 387.455 352.702 371.047 359.021C366.683 360.703 362.572 362.227 359.133 363.377C358.133 363.713 357.199 364.022 356.33 364.311C354.445 364.993 352.484 365.445 350.49 365.658C349.55 365.673 348.613 365.76 347.687 365.919C340.146 367.144 327.224 372.462 325.813 377.8C325.698 378.226 325.667 378.67 325.719 379.108C325.719 379.108 325.719 379.174 325.719 379.211C326.654 385.754 320.113 384.819 320.113 384.819C320.113 384.819 317.777 402.112 314.507 406.786C312.143 410.151 310.526 417.657 310.321 423.321C310.203 425.086 310.342 426.858 310.732 428.584C310.732 428.63 310.732 428.677 310.732 428.714C311.106 429.967 310.209 433.388 308.685 437.772C307.032 442.586 304.621 448.568 302.304 454.214C298.809 462.739 295.52 470.478 295.314 472.179C295.23 472.937 294.987 474.292 294.651 476.04C293.287 483.163 290.259 496.726 288.764 502.212C287.652 506.307 286.036 511.915 284.924 515.766C284.924 515.878 284.858 515.99 284.83 516.093L326.719 515.682V516.467H326.85H326.794Z" fill="#7C699B"/>
<path opacity="0.1" d="M342.081 406.29C342.081 406.29 395.341 433.865 414.496 430.593L342.081 406.29Z" fill="black"/>
<path opacity="0.1" d="M450.47 395.073C450.47 395.073 502.329 411.899 519.615 414.235C536.901 416.572 450.47 395.073 450.47 395.073Z" fill="black"/>
<path opacity="0.1" d="M507.991 340.934C480.894 345.925 429.876 344.85 407.824 344.093C415.907 315.117 455.319 324.969 455.319 324.969C504.104 315.229 507.842 335.438 507.991 340.934Z" fill="black"/>
<path d="M507.991 339.064C480.894 344.056 429.876 342.981 407.824 342.224C415.907 313.247 455.319 323.099 455.319 323.099C504.104 313.359 507.842 333.568 507.991 339.064Z" fill="#7C699B"/>
<path d="M651.831 466.814C651.831 466.814 683.75 461.907 684.376 475.928C685.002 489.949 668.099 499.745 668.099 499.745L651.831 466.814Z" fill="#FBBEBE"/>
<path opacity="0.1" d="M491.443 307.097C490.07 307.71 488.667 308.253 487.238 308.723C477.166 312.2 467.009 315.705 456.403 316.977C445.798 318.248 434.669 317.126 425.419 311.836C424.448 311.287 423.511 310.678 422.616 310.013C421.588 289.449 419.112 269.352 419.112 269.352C419.112 269.352 500.404 231.028 491.06 261.407C487.341 273.68 488.602 290.916 491.443 307.097Z" fill="black"/>
<path d="M442.135 179.403C440.802 179.755 439.404 179.791 438.054 179.507C436.705 179.223 435.44 178.627 434.361 177.767L436.305 180.469C435.159 180.601 433.999 180.481 432.904 180.118C431.81 179.755 430.809 179.156 429.969 178.365C429.793 180.784 429.893 183.214 430.268 185.61C427.053 185.765 423.886 184.771 421.336 182.805C421.286 183.649 421.496 184.487 421.937 185.207C422.378 185.928 423.029 186.495 423.802 186.834C420.572 186.448 417.311 187.251 414.629 189.093C411.947 190.935 410.027 193.691 409.226 196.845L414.103 197.294C410.27 198.113 406.83 200.213 404.348 203.248C402.853 205.117 401.713 207.51 402.368 209.791C403.022 212.072 406.18 213.53 407.899 211.904C405.453 214.824 403.676 218.244 402.691 221.924C401.707 225.603 401.539 229.454 402.199 233.206C402.643 234.805 402.789 236.471 402.629 238.123C402.321 239.665 401.349 241.002 400.863 242.507C399.929 245.236 400.816 248.199 401.648 250.919L406.03 265.333C407.619 270.539 409.198 275.755 411.272 280.793C412.741 283.979 413.99 287.261 415.01 290.617C416.187 295.141 416.234 300.095 418.747 304.049C420.47 306.538 422.773 308.568 425.456 309.966C434.697 315.257 445.863 316.378 456.441 315.107C467.018 313.836 477.166 310.331 487.229 306.854C489.465 306.18 491.61 305.238 493.62 304.049C500.581 299.488 502.132 290.159 503.431 281.943C504.88 272.783 506.814 263.641 510.243 255.023C512.28 249.891 514.915 244.685 514.466 239.188C513.896 231.888 508.122 225.971 506.692 218.793C506.214 216.393 506.236 213.92 506.758 211.53C507.201 210.105 507.449 208.628 507.496 207.136C507.337 204.127 504.87 201.808 502.553 199.874C497.526 195.674 492.337 191.704 486.986 187.965C486.715 186.096 489.257 185.292 490.406 183.815C492.032 181.73 490.35 178.421 487.883 177.449C485.416 176.477 482.65 177.113 480.081 177.758C480.248 176.442 479.987 175.107 479.335 173.952C478.683 172.797 477.676 171.884 476.464 171.347C475.251 170.81 473.898 170.679 472.605 170.974C471.312 171.268 470.149 171.972 469.289 172.981C468.606 171.416 467.516 170.063 466.132 169.063C464.748 168.063 463.121 167.454 461.421 167.298C455.226 166.812 455.104 171.551 451.143 174.159C447.181 176.767 443.91 173.327 440.864 170.822C440.305 172.238 440.128 173.777 440.351 175.283C440.574 176.789 441.189 178.21 442.135 179.403Z" fill="#3F3D56"/>
<path d="M675.499 494.856C675.499 494.856 674.668 496.838 673.135 499.707C670.817 504.122 667.995 508.253 664.726 512.018L664.473 512.289H662.96L609.008 512.784H607.718L607.56 512.597L597.094 500.175L593.151 495.492L592.992 495.295L592.656 494.903L592.469 494.678L592.226 494.389L584.555 485.284L587.358 473.6L592.133 453.915L592.254 453.438L593.189 449.699L593.852 446.895L596.076 437.753L603.701 406.3L617.249 413.31L631.536 438.548L639.207 452.101H643.412C644.206 452.101 646.029 453.634 647.86 455.401C648.514 456.027 649.168 456.691 649.729 457.271C651.392 458.99 652.709 460.467 652.709 460.467C652.709 460.467 659.521 460.617 661.353 465.982C661.447 466.242 661.525 466.507 661.586 466.777C662.194 468.886 662.985 470.937 663.95 472.909C665.155 475.535 666.669 478.517 668.202 481.499C671.052 486.967 673.948 492.173 675.013 494.062L675.144 494.295L675.499 494.856Z" fill="#7C699B"/>
<path opacity="0.1" d="M595.235 452.653L595.142 453.99V454.083L594.983 456.233L593.74 473.535L592.236 494.379L591.806 500.25L590.872 512.812V512.971L490.892 513.906L326.822 515.682V516.467H326.691V515.682V515.42L327.112 501.997L327.915 475.769L328.607 453.532L328.672 451.316C328.713 449.979 329.026 448.664 329.592 447.452C330.158 446.24 330.964 445.156 331.963 444.267C332.962 443.377 334.131 442.7 335.4 442.278C336.669 441.856 338.01 441.696 339.343 441.81C343.753 442.184 349.481 442.642 356.33 443.128L359.133 443.334C398.686 446.082 471.783 449.634 545.544 445.203C547.095 445.119 548.656 445.026 550.216 444.913C561.653 444.194 573.081 443.268 584.396 442.109C585.827 441.959 587.273 442.125 588.632 442.594C589.992 443.064 591.232 443.826 592.265 444.827C593.299 445.827 594.1 447.043 594.613 448.387C595.126 449.731 595.339 451.171 595.235 452.606V452.653Z" fill="black"/>
<path d="M326.794 516.467V515.682L490.892 513.897L590.872 512.962H591.152V512.803L592.086 500.24L592.488 494.632L594.02 473.497L595.226 456.766V456.354C595.281 455.584 595.247 454.809 595.123 454.046C595.128 454.015 595.128 453.983 595.123 453.952C594.866 452.375 594.224 450.885 593.254 449.615C592.225 448.295 590.877 447.259 589.337 446.605C587.797 445.951 586.116 445.7 584.452 445.876C573.137 447.035 561.709 447.961 550.272 448.68C548.712 448.793 547.151 448.886 545.6 448.97C471.839 453.354 398.742 449.802 359.189 447.101L356.386 446.895C349.537 446.409 343.809 445.96 339.399 445.577C336.973 445.372 334.557 446.074 332.617 447.546C330.678 449.019 329.352 451.158 328.896 453.55C328.802 454.056 328.746 454.569 328.728 455.083L328.093 475.797L327.224 502.035L326.813 515.458V515.719V516.504L326.794 516.467Z" fill="#3F3D56"/>
<path opacity="0.1" d="M595.515 459.205L594.366 473.535L592.656 494.893L592.226 500.24L591.292 512.214L591.236 512.812V512.971L591.096 514.355L591.199 512.971H590.928L490.948 513.906L326.822 515.682V515.42L327.28 501.997L328.214 475.769L328.812 458.336C328.842 457.344 329.119 456.376 329.618 455.519C330.117 454.662 330.823 453.943 331.671 453.429C332.729 452.78 333.967 452.485 335.203 452.587C337.166 452.746 339.576 452.933 342.389 453.139C346.958 453.476 352.592 453.868 359.152 454.279C371.299 455.046 386.539 455.868 404.003 456.541C452.591 458.411 518.185 459.037 580.49 453.578C583.294 453.335 586.19 453.064 589.021 452.793C590.142 452.681 591.271 452.896 592.273 453.41C592.557 453.551 592.826 453.721 593.077 453.915C593.89 454.504 594.535 455.297 594.945 456.214C595.041 456.397 595.119 456.588 595.179 456.784C595.46 457.559 595.574 458.384 595.515 459.205Z" fill="black"/>
<path opacity="0.1" d="M278.542 472.002V474.984C278.542 476.068 278.235 477.13 277.657 478.047C277.078 478.963 276.251 479.697 275.272 480.162L237.802 480.882C236.806 480.425 235.962 479.691 235.371 478.768C234.779 477.845 234.466 476.772 234.467 475.675V472.871L278.542 472.002Z" fill="black"/>
<path d="M279.009 481.919L230.187 482.854V474.75L279.009 473.815V481.919Z" fill="#3F3D56"/>
<path opacity="0.1" d="M279.009 481.919L230.187 482.854V474.75L279.009 473.815V481.919Z" fill="black"/>
<path d="M280.878 481.919L232.056 482.854V474.75L280.878 473.815V481.919Z" fill="#3F3D56"/>
<g opacity="0.1">
<path opacity="0.1" d="M442.518 176.337C441.605 175.15 440.999 173.757 440.752 172.28C440.527 173.724 440.662 175.201 441.145 176.58C441.608 176.537 442.068 176.456 442.518 176.337Z" fill="black"/>
<path opacity="0.1" d="M430.651 182.544C430.475 181.398 430.36 180.243 430.306 179.085C430.306 180.235 430.306 181.394 430.306 182.553L430.651 182.544Z" fill="black"/>
<path opacity="0.1" d="M506.804 213.736C506.856 212.903 506.968 212.075 507.141 211.259C507.583 209.837 507.834 208.363 507.888 206.875C507.867 206.541 507.817 206.209 507.739 205.884C507.58 206.744 507.328 207.604 507.141 208.454C506.767 210.188 506.654 211.968 506.804 213.736Z" fill="black"/>
<path opacity="0.1" d="M487.369 184.852L488.387 185.591C489.246 184.97 490.05 184.275 490.789 183.516C491.141 183.029 491.358 182.459 491.421 181.862C491.483 181.265 491.388 180.662 491.144 180.113C491.051 180.327 490.932 180.528 490.789 180.712C489.64 182.188 487.098 183.002 487.369 184.852Z" fill="black"/>
<path opacity="0.1" d="M410.59 193.845C410.249 194.526 409.977 195.24 409.777 195.976C411.239 195.16 412.813 194.564 414.449 194.209L410.59 193.845Z" fill="black"/>
<path opacity="0.1" d="M423.475 183.675C422.861 183.336 422.274 182.952 421.719 182.525C421.695 182.895 421.723 183.266 421.803 183.628C422.361 183.601 422.92 183.617 423.475 183.675Z" fill="black"/>
<path opacity="0.1" d="M514.831 238.749C514.448 243.282 512.336 247.648 510.626 251.947C507.197 260.566 505.263 269.707 503.814 278.877C502.515 287.093 501.011 296.422 494.003 300.974C492.001 302.171 489.857 303.113 487.621 303.778C477.549 307.265 467.392 310.761 456.786 312.032C446.181 313.303 435.052 312.191 425.802 306.9C423.12 305.5 420.818 303.47 419.093 300.983C416.598 297.03 416.551 292.075 415.355 287.551C414.336 284.192 413.087 280.906 411.618 277.718C409.553 272.689 407.964 267.436 406.385 262.267C404.921 257.462 403.461 252.655 402.003 247.844C401.523 246.397 401.167 244.911 400.938 243.404C400.573 245.797 401.284 248.302 402.003 250.648C403.461 255.465 404.921 260.273 406.385 265.071C407.964 270.278 409.553 275.493 411.618 280.522C413.087 283.711 414.336 286.996 415.355 290.356C416.533 294.88 416.579 299.834 419.093 303.788C420.818 306.274 423.12 308.304 425.802 309.704C435.052 314.995 446.209 316.107 456.786 314.836C467.364 313.565 477.511 310.069 487.621 306.582C489.857 305.917 492.001 304.975 494.003 303.778C500.964 299.226 502.515 289.898 503.814 281.681C505.263 272.512 507.197 263.37 510.626 254.752C512.663 249.629 515.298 244.423 514.849 238.917C514.849 238.861 514.831 238.805 514.831 238.749Z" fill="black"/>
<path opacity="0.1" d="M402.993 235.132C402.993 235.132 402.993 235.066 402.993 235.029C403.162 233.381 403.016 231.715 402.564 230.121C402.377 229.096 402.255 228.059 402.199 227.018C402.092 228.995 402.214 230.977 402.564 232.926C402.713 233.655 402.881 234.393 402.993 235.132Z" fill="black"/>
<path opacity="0.1" d="M405.843 212.268C406.562 211.06 407.378 209.913 408.282 208.838C406.572 210.473 403.414 209.015 402.751 206.744C402.506 207.663 402.506 208.629 402.751 209.548C402.981 210.234 403.388 210.847 403.931 211.325C404.474 211.802 405.134 212.128 405.843 212.268Z" fill="black"/>
</g>
<path opacity="0.1" d="M639.217 452.092C639.217 452.092 642.179 462.842 639.217 472.189C636.255 481.536 639.217 452.092 639.217 452.092Z" fill="black"/>
<path opacity="0.1" d="M651.831 463.057C651.831 463.057 653.074 476.704 650.271 479.125C647.467 481.546 651.831 463.057 651.831 463.057Z" fill="black"/>
<path d="M185.934 320.482L280.878 319.547" stroke="#7C699B" stroke-width="2" stroke-miterlimit="10"/>
<path d="M185.934 332.138L280.878 331.213" stroke="#7C699B" stroke-width="2" stroke-miterlimit="10"/>
<path d="M185.934 343.803L280.878 342.869" stroke="#7C699B" stroke-width="2" stroke-miterlimit="10"/>
<line y1="-1.5" x2="98.1407" y2="-1.5" transform="matrix(0.999473 0.0324636 -0.0453152 0.998973 165.662 112.428)" stroke="white" stroke-width="3"/>
<path d="M163.91 116.926L262 120.08" stroke="white" stroke-width="3"/>
<line y1="-1.5" x2="80.1954" y2="-1.5" transform="matrix(0.999444 0.0333468 -0.0475059 0.998871 162 125)" stroke="white" stroke-width="3"/>
<line y1="-1.5" x2="52.6452" y2="-1.5" transform="matrix(0.999609 0.0279763 -0.0398618 0.999205 162 130.674)" stroke="white" stroke-width="3"/>
</g>
<defs>
<clipPath id="clip0">
<rect width="973" height="518" fill="white"/>
</clipPath>
</defs>
</svg>
